ply
format ascii 1.0
element vertex 150
property float x
property float y
property float z
property uchar red
property uchar green
property uchar blue
end_header
1.8300 0.0000 0.0000 120 135 220
1.7599 0.0539 0.3741 126 129 220
1.6141 0.1054 0.7186 132 123 220
1.4263 0.1567 1.0363 138 117 220
1.1630 0.2040 1.2916 144 111 220
0.8610 0.2494 1.4913 149 106 220
0.5239 0.2900 1.6124 154 101 220
0.1775 0.3323 1.6885 159 96 220
-0.1756 0.3673 1.6711 164 91 220
-0.5169 0.4005 1.5909 168 87 220
-0.8279 0.4271 1.4340 171 84 220
-1.0971 0.4491 1.2185 173 82 220
-1.3219 0.4692 0.9604 176 79 220
-1.4886 0.4846 0.6628 178 77 220
-1.6094 0.5011 0.3421 180 75 220
-1.6531 0.5100 0.0000 181 74 220
-1.6447 0.5199 -0.3496 182 73 220
-1.5547 0.5218 -0.6922 182 73 220
-1.3945 0.5184 -1.0132 182 73 220
-1.2076 0.5266 -1.3412 183 72 220
-0.9775 0.5469 -1.6930 185 70 220
-0.6094 0.5224 -1.8755 182 73 220
-0.2111 0.4996 -2.0081 179 76 220
0.2140 0.4659 -2.0365 175 80 220
0.6357 0.4226 -1.9564 170 85 220
1.0282 0.3732 -1.7809 164 91 220
1.3884 0.3235 -1.5420 158 97 220
1.6850 0.2685 -1.2242 152 103 220
1.4997 0.1655 -0.6677 139 116 220
1.5415 0.1133 -0.3277 133 122 220
1.4987 0.0635 -0.0000 127 128 220
1.4182 0.0181 0.3014 122 133 220
1.1692 -0.0224 0.5205 117 138 220
1.0182 -0.0596 0.7398 112 143 220
0.8340 -0.0957 0.9262 108 147 220
0.6215 -0.1313 1.0765 104 151 220
0.3829 -0.1655 1.1784 100 155 220
0.1300 -0.1994 1.2373 96 159 220
-0.1305 -0.2318 1.2418 92 163 220
-0.3872 -0.2622 1.1915 88 167 220
-0.5943 -0.2746 1.0294 87 168 220
-0.7659 -0.2868 0.8506 85 170 220
-0.9222 -0.3050 0.6700 83 172 220
-1.0199 -0.3148 0.4541 82 173 220
-1.0700 -0.3210 0.2274 81 174 220
-1.1105 -0.3353 0.0000 79 176 220
-1.1501 -0.3613 -0.2445 76 179 220
-1.0822 -0.3664 -0.4818 76 179 220
-0.9355 -0.3562 -0.6797 77 178 220
-0.7811 -0.3544 -0.8675 77 178 220
-0.5322 -0.3149 -0.9218 82 173 220
-0.2556 -0.2358 -0.7866 91 164 220
-0.1190 -0.3091 -1.1326 82 173 220
0.1357 -0.3311 -1.2913 80 175 220
0.3940 -0.3010 -1.2126 83 172 220
0.5426 -0.2332 -0.9398 92 163 220
0.6835 -0.1958 -0.7591 96 159 220
0.8299 -0.1710 -0.6030 99 156 220
0.9409 -0.1445 -0.4189 102 153 220
1.0012 -0.1153 -0.2128 106 149 220
1.0264 -0.0862 -0.0000 109 146 220
0.9962 -0.0557 0.2118 113 142 220
0.9315 -0.0254 0.4147 116 139 220
0.8252 0.0051 0.5995 120 135 220
0.6754 0.0353 0.7501 124 131 220
0.4990 0.0645 0.8642 127 128 220
0.3046 0.0924 0.9374 131 124 220
0.0892 0.1042 0.8490 132 123 220
-0.0910 0.1300 0.8656 135 120 220
-0.2739 0.1554 0.8431 138 117 220
-0.4266 0.1704 0.7389 140 115 220
-0.5617 0.1866 0.6239 142 113 220
-0.6683 0.2005 0.4855 144 111 220
-0.7514 0.2145 0.3345 145 110 220
-0.8014 0.2264 0.1703 147 108 220
-0.8070 0.2333 0.0000 147 108 220
-0.7779 0.2376 -0.1653 148 107 220
-0.7339 0.2454 -0.3268 149 106 220
-0.6184 0.2361 -0.4493 148 107 220
-0.2429 0.1122 -0.2698 133 122 220
-0.1004 0.0614 -0.1739 127 128 220
-0.0592 0.0574 -0.1822 126 129 220
-0.0211 0.0585 -0.2006 127 128 220
0.0222 0.0588 -0.2108 127 128 220
0.0688 0.0583 -0.2116 126 129 220
0.1360 0.0664 -0.2356 127 128 220
0.2089 0.0699 -0.2321 128 127 220
0.2696 0.0672 -0.1959 128 127 220
0.3238 0.0628 -0.1442 127 128 220
0.3772 0.0584 -0.0802 127 128 220
0.3969 0.0493 -0.0000 125 130 220
0.3992 0.0392 0.0849 124 131 220
0.3919 0.0287 0.1745 123 132 220
0.3557 0.0164 0.2584 121 134 220
0.2944 0.0033 0.3270 120 135 220
0.2299 -0.0104 0.3983 118 137 220
0.1666 -0.0282 0.5129 116 139 220
0.0583 -0.0456 0.5551 114 141 220
-0.0603 -0.0636 0.5733 112 143 220
-0.1806 -0.0807 0.5558 110 145 220
-0.2911 -0.0959 0.5042 108 147 220
-0.3944 -0.1119 0.4381 106 149 220
-0.4906 -0.1292 0.3564 104 151 220
-0.5514 -0.1415 0.2455 103 152 220
-0.5878 -0.1524 0.1250 101 154 220
-0.6275 -0.1696 0.0000 99 156 220
-0.6304 -0.1831 -0.1340 98 157 220
-0.5958 -0.1925 -0.2653 96 159 220
-0.5342 -0.2001 -0.3881 95 160 220
-0.4477 -0.2059 -0.4972 95 160 220
-0.3487 -0.2157 -0.6040 94 161 220
-0.2186 -0.2175 -0.6727 93 162 220
-0.0750 -0.2172 -0.7139 93 162 220
0.0742 -0.2089 -0.7060 94 161 220
0.2171 -0.1988 -0.6680 96 159 220
0.3283 -0.1765 -0.5687 98 157 220
0.4737 -0.1784 -0.5261 98 157 220
0.5910 -0.1700 -0.4294 99 156 220
0.6704 -0.1549 -0.2985 101 154 220
0.7114 -0.1364 -0.1512 103 152 220
0.7304 -0.1186 -0.0000 105 150 220
0.7173 -0.0995 0.1525 108 147 220
0.6812 -0.0804 0.3033 110 145 220
0.6049 -0.0592 0.4395 112 143 220
0.5012 -0.0372 0.5567 115 140 220
0.3749 -0.0149 0.6494 118 137 220
0.2287 0.0075 0.7037 120 135 220
0.0773 0.0296 0.7354 123 132 220
-0.0772 0.0514 0.7342 126 129 220
-0.2276 0.0726 0.7004 128 127 220
-0.3671 0.0930 0.6358 131 124 220
-0.4960 0.1140 0.5509 133 122 220
-0.5972 0.1325 0.4339 135 120 220
-0.6714 0.1496 0.2989 137 118 220
-0.7156 0.1652 0.1521 139 116 220
-0.7283 0.1791 0.0000 141 114 220
-0.7094 0.1912 -0.1508 142 113 220
-0.6600 0.2013 -0.2939 144 111 220
-0.5826 0.2095 -0.4233 145 110 220
-0.4807 0.2156 -0.5338 145 110 220
-0.3586 0.2196 -0.6210 146 109 220
-0.2214 0.2215 -0.6815 146 109 220
-0.0739 0.2183 -0.7032 146 109 220
0.0740 0.2159 -0.7039 145 110 220
0.2221 0.2142 -0.6836 145 110 220
0.3603 0.2076 -0.6241 144 111 220
0.4839 0.1989 -0.5374 143 112 220
0.5873 0.1883 -0.4267 142 113 220
0.6661 0.1757 -0.2966 141 114 220
0.7260 0.1635 -0.1543 139 116 220
