ply
format ascii 1.0
element vertex 2930
property float x
property float y
property float z
property uchar red
property uchar green
property uchar blue
end_header
0.0000 0.0000 0.0000 0 200 240
0.0000 0.0000 0.1500 0 200 240
0.0000 0.0000 0.3000 0 200 240
0.0000 0.0000 0.4500 0 200 240
0.0000 0.0000 0.6000 0 200 240
0.0000 0.0000 0.7500 0 200 240
0.0000 0.0000 0.9000 0 200 240
0.0000 0.0000 1.0500 0 200 240
0.0000 0.0000 1.2000 0 200 240
0.0000 0.0000 1.3500 0 200 240
0.0000 0.0000 1.5000 0 200 240
0.0000 0.0000 1.6500 0 200 240
0.0000 0.0000 1.8000 0 200 240
0.0000 0.0000 1.9500 0 200 240
0.0000 0.0000 2.1000 0 200 240
0.0000 0.0000 2.2500 0 200 240
0.0000 0.0000 2.4000 0 200 240
0.0000 0.0000 2.5500 0 200 240
0.0000 0.0000 2.7000 0 200 240
0.0000 0.0000 2.8500 0 200 240
0.0000 0.0000 3.0000 0 200 240
0.1500 0.0000 0.0000 0 200 240
0.1500 0.0000 0.1500 0 200 240
0.1500 0.0000 0.3000 0 200 240
0.1500 0.0000 0.4500 0 200 240
0.1500 0.0000 0.6000 0 200 240
0.1500 0.0000 0.7500 0 200 240
0.1500 0.0000 0.9000 0 200 240
0.1500 0.0000 1.0500 0 200 240
0.1500 0.0000 1.2000 0 200 240
0.1500 0.0000 1.3500 0 200 240
0.1500 0.0000 1.5000 0 200 240
0.1500 0.0000 1.6500 0 200 240
0.1500 0.0000 1.8000 0 200 240
0.1500 0.0000 1.9500 0 200 240
0.1500 0.0000 2.1000 0 200 240
0.1500 0.0000 2.2500 0 200 240
0.1500 0.0000 2.4000 0 200 240
0.1500 0.0000 2.5500 0 200 240
0.1500 0.0000 2.7000 0 200 240
0.1500 0.0000 2.8500 0 200 240
0.1500 0.0000 3.0000 0 200 240
0.3000 0.0000 0.0000 0 200 240
0.3000 0.0000 0.1500 0 200 240
0.3000 0.0000 0.3000 0 200 240
0.3000 0.0000 0.4500 0 200 240
0.3000 0.0000 0.6000 0 200 240
0.3000 0.0000 0.7500 0 200 240
0.3000 0.0000 0.9000 0 200 240
0.3000 0.0000 1.0500 0 200 240
0.3000 0.0000 1.2000 0 200 240
0.3000 0.0000 1.3500 0 200 240
0.3000 0.0000 1.5000 0 200 240
0.3000 0.0000 1.6500 0 200 240
0.3000 0.0000 1.8000 0 200 240
0.3000 0.0000 1.9500 0 200 240
0.3000 0.0000 2.1000 0 200 240
0.3000 0.0000 2.2500 0 200 240
0.3000 0.0000 2.4000 0 200 240
0.3000 0.0000 2.5500 0 200 240
0.3000 0.0000 2.7000 0 200 240
0.3000 0.0000 2.8500 0 200 240
0.3000 0.0000 3.0000 0 200 240
0.4500 0.0000 0.0000 0 200 240
0.4500 0.0000 0.1500 0 200 240
0.4500 0.0000 0.3000 0 200 240
0.4500 0.0000 0.4500 0 200 240
0.4500 0.0000 0.6000 0 200 240
0.4500 0.0000 0.7500 0 200 240
0.4500 0.0000 0.9000 0 200 240
0.4500 0.0000 1.0500 0 200 240
0.4500 0.0000 1.2000 0 200 240
0.4500 0.0000 1.3500 0 200 240
0.4500 0.0000 1.5000 0 200 240
0.4500 0.0000 1.6500 0 200 240
0.4500 0.0000 1.8000 0 200 240
0.4500 0.0000 1.9500 0 200 240
0.4500 0.0000 2.1000 0 200 240
0.4500 0.0000 2.2500 0 200 240
0.4500 0.0000 2.4000 0 200 240
0.4500 0.0000 2.5500 0 200 240
0.4500 0.0000 2.7000 0 200 240
0.4500 0.0000 2.8500 0 200 240
0.4500 0.0000 3.0000 0 200 240
0.6000 0.0000 0.0000 0 200 240
0.6000 0.0000 0.1500 0 200 240
0.6000 0.0000 0.3000 0 200 240
0.6000 0.0000 0.4500 0 200 240
0.6000 0.0000 0.6000 0 200 240
0.6000 0.0000 0.7500 0 200 240
0.6000 0.0000 0.9000 0 200 240
0.6000 0.0000 1.0500 0 200 240
0.6000 0.0000 1.2000 0 200 240
0.6000 0.0000 1.3500 0 200 240
0.6000 0.0000 1.5000 0 200 240
0.6000 0.0000 1.6500 0 200 240
0.6000 0.0000 1.8000 0 200 240
0.6000 0.0000 1.9500 0 200 240
0.6000 0.0000 2.1000 0 200 240
0.6000 0.0000 2.2500 0 200 240
0.6000 0.0000 2.4000 0 200 240
0.6000 0.0000 2.5500 0 200 240
0.6000 0.0000 2.7000 0 200 240
0.6000 0.0000 2.8500 0 200 240
0.6000 0.0000 3.0000 0 200 240
0.7500 0.0000 0.0000 0 200 240
0.7500 0.0000 0.1500 0 200 240
0.7500 0.0000 0.3000 0 200 240
0.7500 0.0000 0.4500 0 200 240
0.7500 0.0000 0.6000 0 200 240
0.7500 0.0000 0.7500 0 200 240
0.7500 0.0000 0.9000 0 200 240
0.7500 0.0000 1.0500 0 200 240
0.7500 0.0000 1.2000 0 200 240
0.7500 0.0000 1.3500 0 200 240
0.7500 0.0000 1.5000 0 200 240
0.7500 0.0000 1.6500 0 200 240
0.7500 0.0000 1.8000 0 200 240
0.7500 0.0000 1.9500 0 200 240
0.7500 0.0000 2.1000 0 200 240
0.7500 0.0000 2.2500 0 200 240
0.7500 0.0000 2.4000 0 200 240
0.7500 0.0000 2.5500 0 200 240
0.7500 0.0000 2.7000 0 200 240
0.7500 0.0000 2.8500 0 200 240
0.7500 0.0000 3.0000 0 200 240
0.9000 0.0000 0.0000 0 200 240
0.9000 0.0000 0.1500 0 200 240
0.9000 0.0000 0.3000 0 200 240
0.9000 0.0000 0.4500 0 200 240
0.9000 0.0000 0.6000 0 200 240
0.9000 0.0000 0.7500 0 200 240
0.9000 0.0000 0.9000 0 200 240
0.9000 0.0000 1.0500 0 200 240
0.9000 0.0000 1.2000 0 200 240
0.9000 0.0000 1.3500 0 200 240
0.9000 0.0000 1.5000 0 200 240
0.9000 0.0000 1.6500 0 200 240
0.9000 0.0000 1.8000 0 200 240
0.9000 0.0000 1.9500 0 200 240
0.9000 0.0000 2.1000 0 200 240
0.9000 0.0000 2.2500 0 200 240
0.9000 0.0000 2.4000 0 200 240
0.9000 0.0000 2.5500 0 200 240
0.9000 0.0000 2.7000 0 200 240
0.9000 0.0000 2.8500 0 200 240
0.9000 0.0000 3.0000 0 200 240
1.0500 0.0000 0.0000 0 200 240
1.0500 0.0000 0.1500 0 200 240
1.0500 0.0000 0.3000 0 200 240
1.0500 0.0000 0.4500 0 200 240
1.0500 0.0000 0.6000 0 200 240
1.0500 0.0000 0.7500 0 200 240
1.0500 0.0000 0.9000 0 200 240
1.0500 0.0000 1.0500 0 200 240
1.0500 0.0000 1.2000 0 200 240
1.0500 0.0000 1.3500 0 200 240
1.0500 0.0000 1.5000 0 200 240
1.0500 0.0000 1.6500 0 200 240
1.0500 0.0000 1.8000 0 200 240
1.0500 0.0000 1.9500 0 200 240
1.0500 0.0000 2.1000 0 200 240
1.0500 0.0000 2.2500 0 200 240
1.0500 0.0000 2.4000 0 200 240
1.0500 0.0000 2.5500 0 200 240
1.0500 0.0000 2.7000 0 200 240
1.0500 0.0000 2.8500 0 200 240
1.0500 0.0000 3.0000 0 200 240
1.2000 0.0000 0.0000 0 200 240
1.2000 0.0000 0.1500 0 200 240
1.2000 0.0000 0.3000 0 200 240
1.2000 0.0000 0.4500 0 200 240
1.2000 0.0000 0.6000 0 200 240
1.2000 0.0000 0.7500 0 200 240
1.2000 0.0000 0.9000 0 200 240
1.2000 0.0000 1.0500 0 200 240
1.2000 0.0000 1.2000 0 200 240
1.2000 0.0000 1.3500 0 200 240
1.2000 0.0000 1.5000 0 200 240
1.2000 0.0000 1.6500 0 200 240
1.2000 0.0000 1.8000 0 200 240
1.2000 0.0000 1.9500 0 200 240
1.2000 0.0000 2.1000 0 200 240
1.2000 0.0000 2.2500 0 200 240
1.2000 0.0000 2.4000 0 200 240
1.2000 0.0000 2.5500 0 200 240
1.2000 0.0000 2.7000 0 200 240
1.2000 0.0000 2.8500 0 200 240
1.2000 0.0000 3.0000 0 200 240
1.3500 0.0000 0.0000 0 200 240
1.3500 0.0000 0.1500 0 200 240
1.3500 0.0000 0.3000 0 200 240
1.3500 0.0000 0.4500 0 200 240
1.3500 0.0000 0.6000 0 200 240
1.3500 0.0000 0.7500 0 200 240
1.3500 0.0000 0.9000 0 200 240
1.3500 0.0000 1.0500 0 200 240
1.3500 0.0000 1.2000 0 200 240
1.3500 0.0000 1.3500 0 200 240
1.3500 0.0000 1.5000 0 200 240
1.3500 0.0000 1.6500 0 200 240
1.3500 0.0000 1.8000 0 200 240
1.3500 0.0000 1.9500 0 200 240
1.3500 0.0000 2.1000 0 200 240
1.3500 0.0000 2.2500 0 200 240
1.3500 0.0000 2.4000 0 200 240
1.3500 0.0000 2.5500 0 200 240
1.3500 0.0000 2.7000 0 200 240
1.3500 0.0000 2.8500 0 200 240
1.3500 0.0000 3.0000 0 200 240
1.5000 0.0000 0.0000 0 200 240
1.5000 0.0000 0.1500 0 200 240
1.5000 0.0000 0.3000 0 200 240
1.5000 0.0000 0.4500 0 200 240
1.5000 0.0000 0.6000 0 200 240
1.5000 0.0000 0.7500 0 200 240
1.5000 0.0000 0.9000 0 200 240
1.5000 0.0000 1.0500 0 200 240
1.5000 0.0000 1.2000 0 200 240
1.5000 0.0000 1.3500 0 200 240
1.5000 0.0000 1.5000 0 200 240
1.5000 0.0000 1.6500 0 200 240
1.5000 0.0000 1.8000 0 200 240
1.5000 0.0000 1.9500 0 200 240
1.5000 0.0000 2.1000 0 200 240
1.5000 0.0000 2.2500 0 200 240
1.5000 0.0000 2.4000 0 200 240
1.5000 0.0000 2.5500 0 200 240
1.5000 0.0000 2.7000 0 200 240
1.5000 0.0000 2.8500 0 200 240
1.5000 0.0000 3.0000 0 200 240
1.6500 0.0000 0.0000 0 200 240
1.6500 0.0000 0.1500 0 200 240
1.6500 0.0000 0.3000 0 200 240
1.6500 0.0000 0.4500 0 200 240
1.6500 0.0000 0.6000 0 200 240
1.6500 0.0000 0.7500 0 200 240
1.6500 0.0000 0.9000 0 200 240
1.6500 0.0000 1.0500 0 200 240
1.6500 0.0000 1.2000 0 200 240
1.6500 0.0000 1.3500 0 200 240
1.6500 0.0000 1.5000 0 200 240
1.6500 0.0000 1.6500 0 200 240
1.6500 0.0000 1.8000 0 200 240
1.6500 0.0000 1.9500 0 200 240
1.6500 0.0000 2.1000 0 200 240
1.6500 0.0000 2.2500 0 200 240
1.6500 0.0000 2.4000 0 200 240
1.6500 0.0000 2.5500 0 200 240
1.6500 0.0000 2.7000 0 200 240
1.6500 0.0000 2.8500 0 200 240
1.6500 0.0000 3.0000 0 200 240
1.8000 0.0000 0.0000 0 200 240
1.8000 0.0000 0.1500 0 200 240
1.8000 0.0000 0.3000 0 200 240
1.8000 0.0000 0.4500 0 200 240
1.8000 0.0000 0.6000 0 200 240
1.8000 0.0000 0.7500 0 200 240
1.8000 0.0000 0.9000 0 200 240
1.8000 0.0000 1.0500 0 200 240
1.8000 0.0000 1.2000 0 200 240
1.8000 0.0000 1.3500 0 200 240
1.8000 0.0000 1.5000 0 200 240
1.8000 0.0000 1.6500 0 200 240
1.8000 0.0000 1.8000 0 200 240
1.8000 0.0000 1.9500 0 200 240
1.8000 0.0000 2.1000 0 200 240
1.8000 0.0000 2.2500 0 200 240
1.8000 0.0000 2.4000 0 200 240
1.8000 0.0000 2.5500 0 200 240
1.8000 0.0000 2.7000 0 200 240
1.8000 0.0000 2.8500 0 200 240
1.8000 0.0000 3.0000 0 200 240
1.9500 0.0000 0.0000 0 200 240
1.9500 0.0000 0.1500 0 200 240
1.9500 0.0000 0.3000 0 200 240
1.9500 0.0000 0.4500 0 200 240
1.9500 0.0000 0.6000 0 200 240
1.9500 0.0000 0.7500 0 200 240
1.9500 0.0000 0.9000 0 200 240
1.9500 0.0000 1.0500 0 200 240
1.9500 0.0000 1.2000 0 200 240
1.9500 0.0000 1.3500 0 200 240
1.9500 0.0000 1.5000 0 200 240
1.9500 0.0000 1.6500 0 200 240
1.9500 0.0000 1.8000 0 200 240
1.9500 0.0000 1.9500 0 200 240
1.9500 0.0000 2.1000 0 200 240
1.9500 0.0000 2.2500 0 200 240
1.9500 0.0000 2.4000 0 200 240
1.9500 0.0000 2.5500 0 200 240
1.9500 0.0000 2.7000 0 200 240
1.9500 0.0000 2.8500 0 200 240
1.9500 0.0000 3.0000 0 200 240
2.1000 0.0000 0.0000 0 200 240
2.1000 0.0000 0.1500 0 200 240
2.1000 0.0000 0.3000 0 200 240
2.1000 0.0000 0.4500 0 200 240
2.1000 0.0000 0.6000 0 200 240
2.1000 0.0000 0.7500 0 200 240
2.1000 0.0000 0.9000 0 200 240
2.1000 0.0000 1.0500 0 200 240
2.1000 0.0000 1.2000 0 200 240
2.1000 0.0000 1.3500 0 200 240
2.1000 0.0000 1.5000 0 200 240
2.1000 0.0000 1.6500 0 200 240
2.1000 0.0000 1.8000 0 200 240
2.1000 0.0000 1.9500 0 200 240
2.1000 0.0000 2.1000 0 200 240
2.1000 0.0000 2.2500 0 200 240
2.1000 0.0000 2.4000 0 200 240
2.1000 0.0000 2.5500 0 200 240
2.1000 0.0000 2.7000 0 200 240
2.1000 0.0000 2.8500 0 200 240
2.1000 0.0000 3.0000 0 200 240
2.2500 0.0000 0.0000 0 200 240
2.2500 0.0000 0.1500 0 200 240
2.2500 0.0000 0.3000 0 200 240
2.2500 0.0000 0.4500 0 200 240
2.2500 0.0000 0.6000 0 200 240
2.2500 0.0000 0.7500 0 200 240
2.2500 0.0000 0.9000 0 200 240
2.2500 0.0000 1.0500 0 200 240
2.2500 0.0000 1.2000 0 200 240
2.2500 0.0000 1.3500 0 200 240
2.2500 0.0000 1.5000 0 200 240
2.2500 0.0000 1.6500 0 200 240
2.2500 0.0000 1.8000 0 200 240
2.2500 0.0000 1.9500 0 200 240
2.2500 0.0000 2.1000 0 200 240
2.2500 0.0000 2.2500 0 200 240
2.2500 0.0000 2.4000 0 200 240
2.2500 0.0000 2.5500 0 200 240
2.2500 0.0000 2.7000 0 200 240
2.2500 0.0000 2.8500 0 200 240
2.2500 0.0000 3.0000 0 200 240
2.4000 0.0000 0.0000 0 200 240
2.4000 0.0000 0.1500 0 200 240
2.4000 0.0000 0.3000 0 200 240
2.4000 0.0000 0.4500 0 200 240
2.4000 0.0000 0.6000 0 200 240
2.4000 0.0000 0.7500 0 200 240
2.4000 0.0000 0.9000 0 200 240
2.4000 0.0000 1.0500 0 200 240
2.4000 0.0000 1.2000 0 200 240
2.4000 0.0000 1.3500 0 200 240
2.4000 0.0000 1.5000 0 200 240
2.4000 0.0000 1.6500 0 200 240
2.4000 0.0000 1.8000 0 200 240
2.4000 0.0000 1.9500 0 200 240
2.4000 0.0000 2.1000 0 200 240
2.4000 0.0000 2.2500 0 200 240
2.4000 0.0000 2.4000 0 200 240
2.4000 0.0000 2.5500 0 200 240
2.4000 0.0000 2.7000 0 200 240
2.4000 0.0000 2.8500 0 200 240
2.4000 0.0000 3.0000 0 200 240
2.5500 0.0000 0.0000 0 200 240
2.5500 0.0000 0.1500 0 200 240
2.5500 0.0000 0.3000 0 200 240
2.5500 0.0000 0.4500 0 200 240
2.5500 0.0000 0.6000 0 200 240
2.5500 0.0000 0.7500 0 200 240
2.5500 0.0000 0.9000 0 200 240
2.5500 0.0000 1.0500 0 200 240
2.5500 0.0000 1.2000 0 200 240
2.5500 0.0000 1.3500 0 200 240
2.5500 0.0000 1.5000 0 200 240
2.5500 0.0000 1.6500 0 200 240
2.5500 0.0000 1.8000 0 200 240
2.5500 0.0000 1.9500 0 200 240
2.5500 0.0000 2.1000 0 200 240
2.5500 0.0000 2.2500 0 200 240
2.5500 0.0000 2.4000 0 200 240
2.5500 0.0000 2.5500 0 200 240
2.5500 0.0000 2.7000 0 200 240
2.5500 0.0000 2.8500 0 200 240
2.5500 0.0000 3.0000 0 200 240
0.0000 0.0800 3.0300 247 19 9
0.0000 0.0800 0.0000 247 19 9
0.1000 0.0800 3.0300 247 19 9
0.1000 0.0800 0.0000 247 19 9
0.2000 0.0800 3.0300 247 19 9
0.2000 0.0800 0.0000 247 19 9
0.3000 0.0800 3.0300 247 19 9
0.3000 0.0800 0.0000 247 19 9
0.4000 0.0800 3.0300 247 19 9
0.4000 0.0800 0.0000 247 19 9
0.5000 0.0800 3.0300 247 19 9
0.5000 0.0800 0.0000 247 19 9
0.6000 0.0800 3.0300 247 19 9
0.6000 0.0800 0.0000 247 19 9
0.7000 0.0800 3.0300 247 19 9
0.7000 0.0800 0.0000 247 19 9
0.8000 0.0800 3.0300 247 19 9
0.8000 0.0800 0.0000 247 19 9
0.9000 0.0800 3.0300 247 19 9
0.9000 0.0800 0.0000 247 19 9
1.0000 0.0800 3.0300 247 19 9
1.0000 0.0800 0.0000 247 19 9
1.1000 0.0800 3.0300 247 19 9
1.1000 0.0800 0.0000 247 19 9
1.2000 0.0800 3.0300 247 19 9
1.2000 0.0800 0.0000 247 19 9
1.3000 0.0800 3.0300 247 19 9
1.3000 0.0800 0.0000 247 19 9
1.4000 0.0800 3.0300 247 19 9
1.4000 0.0800 0.0000 247 19 9
1.5000 0.0800 3.0300 247 19 9
1.5000 0.0800 0.0000 247 19 9
1.6000 0.0800 3.0300 247 19 9
1.6000 0.0800 0.0000 247 19 9
1.7000 0.0800 3.0300 247 19 9
1.7000 0.0800 0.0000 247 19 9
1.8000 0.0800 3.0300 247 19 9
1.8000 0.0800 0.0000 247 19 9
1.9000 0.0800 3.0300 247 19 9
1.9000 0.0800 0.0000 247 19 9
2.0000 0.0800 3.0300 247 19 9
2.0000 0.0800 0.0000 247 19 9
2.1000 0.0800 3.0300 247 19 9
2.1000 0.0800 0.0000 247 19 9
2.2000 0.0800 3.0300 247 19 9
2.2000 0.0800 0.0000 247 19 9
2.3000 0.0800 3.0300 247 19 9
2.3000 0.0800 0.0000 247 19 9
2.4000 0.0800 3.0300 247 19 9
2.4000 0.0800 0.0000 247 19 9
2.5000 0.0800 3.0300 247 19 9
2.5000 0.0800 0.0000 247 19 9
2.6000 0.0800 3.0300 247 19 9
2.6000 0.0800 0.0000 247 19 9
2.6300 0.0800 0.0000 247 19 9
0.0000 0.0800 0.0000 247 19 9
2.6300 0.0800 0.1000 247 19 9
0.0000 0.0800 0.1000 247 19 9
2.6300 0.0800 0.2000 247 19 9
0.0000 0.0800 0.2000 247 19 9
2.6300 0.0800 0.3000 247 19 9
0.0000 0.0800 0.3000 247 19 9
2.6300 0.0800 0.4000 247 19 9
0.0000 0.0800 0.4000 247 19 9
2.6300 0.0800 0.5000 247 19 9
0.0000 0.0800 0.5000 247 19 9
2.6300 0.0800 0.6000 247 19 9
0.0000 0.0800 0.6000 247 19 9
2.6300 0.0800 0.7000 247 19 9
0.0000 0.0800 0.7000 247 19 9
2.6300 0.0800 0.8000 247 19 9
0.0000 0.0800 0.8000 247 19 9
2.6300 0.0800 0.9000 247 19 9
0.0000 0.0800 0.9000 247 19 9
2.6300 0.0800 1.0000 247 19 9
0.0000 0.0800 1.0000 247 19 9
2.6300 0.0800 1.1000 247 19 9
0.0000 0.0800 1.1000 247 19 9
2.6300 0.0800 1.2000 247 19 9
0.0000 0.0800 1.2000 247 19 9
2.6300 0.0800 1.3000 247 19 9
0.0000 0.0800 1.3000 247 19 9
2.6300 0.0800 1.4000 247 19 9
0.0000 0.0800 1.4000 247 19 9
2.6300 0.0800 1.5000 247 19 9
0.0000 0.0800 1.5000 247 19 9
2.6300 0.0800 1.6000 247 19 9
0.0000 0.0800 1.6000 247 19 9
2.6300 0.0800 1.7000 247 19 9
0.0000 0.0800 1.7000 247 19 9
2.6300 0.0800 1.8000 247 19 9
0.0000 0.0800 1.8000 247 19 9
2.6300 0.0800 1.9000 247 19 9
0.0000 0.0800 1.9000 247 19 9
2.6300 0.0800 2.0000 247 19 9
0.0000 0.0800 2.0000 247 19 9
2.6300 0.0800 2.1000 247 19 9
0.0000 0.0800 2.1000 247 19 9
2.6300 0.0800 2.2000 247 19 9
0.0000 0.0800 2.2000 247 19 9
2.6300 0.0800 2.3000 247 19 9
0.0000 0.0800 2.3000 247 19 9
2.6300 0.0800 2.4000 247 19 9
0.0000 0.0800 2.4000 247 19 9
2.6300 0.0800 2.5000 247 19 9
0.0000 0.0800 2.5000 247 19 9
2.6300 0.0800 2.6000 247 19 9
0.0000 0.0800 2.6000 247 19 9
2.6300 0.0800 2.7000 247 19 9
0.0000 0.0800 2.7000 247 19 9
2.6300 0.0800 2.8000 247 19 9
0.0000 0.0800 2.8000 247 19 9
2.6300 0.0800 2.9000 247 19 9
0.0000 0.0800 2.9000 247 19 9
2.6300 0.0800 3.0000 247 19 9
0.0000 0.0800 3.0000 247 19 9
0.0000 0.1748 3.0300 237 43 21
0.0000 0.1748 0.0000 237 43 21
0.1000 0.1748 3.0300 237 43 21
0.1000 0.1748 0.0000 237 43 21
0.2000 0.1748 3.0300 237 43 21
0.2000 0.1748 0.0000 237 43 21
0.3000 0.1748 3.0300 237 43 21
0.3000 0.1748 0.0000 237 43 21
0.4000 0.1748 3.0300 237 43 21
0.4000 0.1748 0.0000 237 43 21
0.5000 0.1748 3.0300 237 43 21
0.5000 0.1748 0.0000 237 43 21
0.6000 0.1748 3.0300 237 43 21
0.6000 0.1748 0.0000 237 43 21
0.7000 0.1748 3.0300 237 43 21
0.7000 0.1748 0.0000 237 43 21
0.8000 0.1748 3.0300 237 43 21
0.8000 0.1748 0.0000 237 43 21
0.9000 0.1748 3.0300 237 43 21
0.9000 0.1748 0.0000 237 43 21
1.0000 0.1748 3.0300 237 43 21
1.0000 0.1748 0.0000 237 43 21
1.1000 0.1748 3.0300 237 43 21
1.1000 0.1748 0.0000 237 43 21
1.2000 0.1748 3.0300 237 43 21
1.2000 0.1748 0.0000 237 43 21
1.3000 0.1748 3.0300 237 43 21
1.3000 0.1748 0.0000 237 43 21
1.4000 0.1748 3.0300 237 43 21
1.4000 0.1748 0.0000 237 43 21
1.5000 0.1748 3.0300 237 43 21
1.5000 0.1748 0.0000 237 43 21
1.6000 0.1748 3.0300 237 43 21
1.6000 0.1748 0.0000 237 43 21
1.7000 0.1748 3.0300 237 43 21
1.7000 0.1748 0.0000 237 43 21
1.8000 0.1748 3.0300 237 43 21
1.8000 0.1748 0.0000 237 43 21
1.9000 0.1748 3.0300 237 43 21
1.9000 0.1748 0.0000 237 43 21
2.0000 0.1748 3.0300 237 43 21
2.0000 0.1748 0.0000 237 43 21
2.1000 0.1748 3.0300 237 43 21
2.1000 0.1748 0.0000 237 43 21
2.2000 0.1748 3.0300 237 43 21
2.2000 0.1748 0.0000 237 43 21
2.3000 0.1748 3.0300 237 43 21
2.3000 0.1748 0.0000 237 43 21
2.4000 0.1748 3.0300 237 43 21
2.4000 0.1748 0.0000 237 43 21
2.5000 0.1748 3.0300 237 43 21
2.5000 0.1748 0.0000 237 43 21
2.6000 0.1748 3.0300 237 43 21
2.6000 0.1748 0.0000 237 43 21
2.6300 0.1748 0.0000 237 43 21
0.0000 0.1748 0.0000 237 43 21
2.6300 0.1748 0.1000 237 43 21
0.0000 0.1748 0.1000 237 43 21
2.6300 0.1748 0.2000 237 43 21
0.0000 0.1748 0.2000 237 43 21
2.6300 0.1748 0.3000 237 43 21
0.0000 0.1748 0.3000 237 43 21
2.6300 0.1748 0.4000 237 43 21
0.0000 0.1748 0.4000 237 43 21
2.6300 0.1748 0.5000 237 43 21
0.0000 0.1748 0.5000 237 43 21
2.6300 0.1748 0.6000 237 43 21
0.0000 0.1748 0.6000 237 43 21
2.6300 0.1748 0.7000 237 43 21
0.0000 0.1748 0.7000 237 43 21
2.6300 0.1748 0.8000 237 43 21
0.0000 0.1748 0.8000 237 43 21
2.6300 0.1748 0.9000 237 43 21
0.0000 0.1748 0.9000 237 43 21
2.6300 0.1748 1.0000 237 43 21
0.0000 0.1748 1.0000 237 43 21
2.6300 0.1748 1.1000 237 43 21
0.0000 0.1748 1.1000 237 43 21
2.6300 0.1748 1.2000 237 43 21
0.0000 0.1748 1.2000 237 43 21
2.6300 0.1748 1.3000 237 43 21
0.0000 0.1748 1.3000 237 43 21
2.6300 0.1748 1.4000 237 43 21
0.0000 0.1748 1.4000 237 43 21
2.6300 0.1748 1.5000 237 43 21
0.0000 0.1748 1.5000 237 43 21
2.6300 0.1748 1.6000 237 43 21
0.0000 0.1748 1.6000 237 43 21
2.6300 0.1748 1.7000 237 43 21
0.0000 0.1748 1.7000 237 43 21
2.6300 0.1748 1.8000 237 43 21
0.0000 0.1748 1.8000 237 43 21
2.6300 0.1748 1.9000 237 43 21
0.0000 0.1748 1.9000 237 43 21
2.6300 0.1748 2.0000 237 43 21
0.0000 0.1748 2.0000 237 43 21
2.6300 0.1748 2.1000 237 43 21
0.0000 0.1748 2.1000 237 43 21
2.6300 0.1748 2.2000 237 43 21
0.0000 0.1748 2.2000 237 43 21
2.6300 0.1748 2.3000 237 43 21
0.0000 0.1748 2.3000 237 43 21
2.6300 0.1748 2.4000 237 43 21
0.0000 0.1748 2.4000 237 43 21
2.6300 0.1748 2.5000 237 43 21
0.0000 0.1748 2.5000 237 43 21
2.6300 0.1748 2.6000 237 43 21
0.0000 0.1748 2.6000 237 43 21
2.6300 0.1748 2.7000 237 43 21
0.0000 0.1748 2.7000 237 43 21
2.6300 0.1748 2.8000 237 43 21
0.0000 0.1748 2.8000 237 43 21
2.6300 0.1748 2.9000 237 43 21
0.0000 0.1748 2.9000 237 43 21
2.6300 0.1748 3.0000 237 43 21
0.0000 0.1748 3.0000 237 43 21
0.0000 0.2695 3.0300 228 66 33
0.0000 0.2695 0.0000 228 66 33
0.1000 0.2695 3.0300 228 66 33
0.1000 0.2695 0.0000 228 66 33
0.2000 0.2695 3.0300 228 66 33
0.2000 0.2695 0.0000 228 66 33
0.3000 0.2695 3.0300 228 66 33
0.3000 0.2695 0.0000 228 66 33
0.4000 0.2695 3.0300 228 66 33
0.4000 0.2695 0.0000 228 66 33
0.5000 0.2695 3.0300 228 66 33
0.5000 0.2695 0.0000 228 66 33
0.6000 0.2695 3.0300 228 66 33
0.6000 0.2695 0.0000 228 66 33
0.7000 0.2695 3.0300 228 66 33
0.7000 0.2695 0.0000 228 66 33
0.8000 0.2695 3.0300 228 66 33
0.8000 0.2695 0.0000 228 66 33
0.9000 0.2695 3.0300 228 66 33
0.9000 0.2695 0.0000 228 66 33
1.0000 0.2695 3.0300 228 66 33
1.0000 0.2695 0.0000 228 66 33
1.1000 0.2695 3.0300 228 66 33
1.1000 0.2695 0.0000 228 66 33
1.2000 0.2695 3.0300 228 66 33
1.2000 0.2695 0.0000 228 66 33
1.3000 0.2695 3.0300 228 66 33
1.3000 0.2695 0.0000 228 66 33
1.4000 0.2695 3.0300 228 66 33
1.4000 0.2695 0.0000 228 66 33
1.5000 0.2695 3.0300 228 66 33
1.5000 0.2695 0.0000 228 66 33
1.6000 0.2695 3.0300 228 66 33
1.6000 0.2695 0.0000 228 66 33
1.7000 0.2695 3.0300 228 66 33
1.7000 0.2695 0.0000 228 66 33
1.8000 0.2695 3.0300 228 66 33
1.8000 0.2695 0.0000 228 66 33
1.9000 0.2695 3.0300 228 66 33
1.9000 0.2695 0.0000 228 66 33
2.0000 0.2695 3.0300 228 66 33
2.0000 0.2695 0.0000 228 66 33
2.1000 0.2695 3.0300 228 66 33
2.1000 0.2695 0.0000 228 66 33
2.2000 0.2695 3.0300 228 66 33
2.2000 0.2695 0.0000 228 66 33
2.3000 0.2695 3.0300 228 66 33
2.3000 0.2695 0.0000 228 66 33
2.4000 0.2695 3.0300 228 66 33
2.4000 0.2695 0.0000 228 66 33
2.5000 0.2695 3.0300 228 66 33
2.5000 0.2695 0.0000 228 66 33
2.6000 0.2695 3.0300 228 66 33
2.6000 0.2695 0.0000 228 66 33
2.6300 0.2695 0.0000 228 66 33
0.0000 0.2695 0.0000 228 66 33
2.6300 0.2695 0.1000 228 66 33
0.0000 0.2695 0.1000 228 66 33
2.6300 0.2695 0.2000 228 66 33
0.0000 0.2695 0.2000 228 66 33
2.6300 0.2695 0.3000 228 66 33
0.0000 0.2695 0.3000 228 66 33
2.6300 0.2695 0.4000 228 66 33
0.0000 0.2695 0.4000 228 66 33
2.6300 0.2695 0.5000 228 66 33
0.0000 0.2695 0.5000 228 66 33
2.6300 0.2695 0.6000 228 66 33
0.0000 0.2695 0.6000 228 66 33
2.6300 0.2695 0.7000 228 66 33
0.0000 0.2695 0.7000 228 66 33
2.6300 0.2695 0.8000 228 66 33
0.0000 0.2695 0.8000 228 66 33
2.6300 0.2695 0.9000 228 66 33
0.0000 0.2695 0.9000 228 66 33
2.6300 0.2695 1.0000 228 66 33
0.0000 0.2695 1.0000 228 66 33
2.6300 0.2695 1.1000 228 66 33
0.0000 0.2695 1.1000 228 66 33
2.6300 0.2695 1.2000 228 66 33
0.0000 0.2695 1.2000 228 66 33
2.6300 0.2695 1.3000 228 66 33
0.0000 0.2695 1.3000 228 66 33
2.6300 0.2695 1.4000 228 66 33
0.0000 0.2695 1.4000 228 66 33
2.6300 0.2695 1.5000 228 66 33
0.0000 0.2695 1.5000 228 66 33
2.6300 0.2695 1.6000 228 66 33
0.0000 0.2695 1.6000 228 66 33
2.6300 0.2695 1.7000 228 66 33
0.0000 0.2695 1.7000 228 66 33
2.6300 0.2695 1.8000 228 66 33
0.0000 0.2695 1.8000 228 66 33
2.6300 0.2695 1.9000 228 66 33
0.0000 0.2695 1.9000 228 66 33
2.6300 0.2695 2.0000 228 66 33
0.0000 0.2695 2.0000 228 66 33
2.6300 0.2695 2.1000 228 66 33
0.0000 0.2695 2.1000 228 66 33
2.6300 0.2695 2.2000 228 66 33
0.0000 0.2695 2.2000 228 66 33
2.6300 0.2695 2.3000 228 66 33
0.0000 0.2695 2.3000 228 66 33
2.6300 0.2695 2.4000 228 66 33
0.0000 0.2695 2.4000 228 66 33
2.6300 0.2695 2.5000 228 66 33
0.0000 0.2695 2.5000 228 66 33
2.6300 0.2695 2.6000 228 66 33
0.0000 0.2695 2.6000 228 66 33
2.6300 0.2695 2.7000 228 66 33
0.0000 0.2695 2.7000 228 66 33
2.6300 0.2695 2.8000 228 66 33
0.0000 0.2695 2.8000 228 66 33
2.6300 0.2695 2.9000 228 66 33
0.0000 0.2695 2.9000 228 66 33
2.6300 0.2695 3.0000 228 66 33
0.0000 0.2695 3.0000 228 66 33
0.0000 0.3643 3.0300 219 89 44
0.0000 0.3643 0.0000 219 89 44
0.1000 0.3643 3.0300 219 89 44
0.1000 0.3643 0.0000 219 89 44
0.2000 0.3643 3.0300 219 89 44
0.2000 0.3643 0.0000 219 89 44
0.3000 0.3643 3.0300 219 89 44
0.3000 0.3643 0.0000 219 89 44
0.4000 0.3643 3.0300 219 89 44
0.4000 0.3643 0.0000 219 89 44
0.5000 0.3643 3.0300 219 89 44
0.5000 0.3643 0.0000 219 89 44
0.6000 0.3643 3.0300 219 89 44
0.6000 0.3643 0.0000 219 89 44
0.7000 0.3643 3.0300 219 89 44
0.7000 0.3643 0.0000 219 89 44
0.8000 0.3643 3.0300 219 89 44
0.8000 0.3643 0.0000 219 89 44
0.9000 0.3643 3.0300 219 89 44
0.9000 0.3643 0.0000 219 89 44
1.0000 0.3643 3.0300 219 89 44
1.0000 0.3643 0.0000 219 89 44
1.1000 0.3643 3.0300 219 89 44
1.1000 0.3643 0.0000 219 89 44
1.2000 0.3643 3.0300 219 89 44
1.2000 0.3643 0.0000 219 89 44
1.3000 0.3643 3.0300 219 89 44
1.3000 0.3643 0.0000 219 89 44
1.4000 0.3643 3.0300 219 89 44
1.4000 0.3643 0.0000 219 89 44
1.5000 0.3643 3.0300 219 89 44
1.5000 0.3643 0.0000 219 89 44
1.6000 0.3643 3.0300 219 89 44
1.6000 0.3643 0.0000 219 89 44
1.7000 0.3643 3.0300 219 89 44
1.7000 0.3643 0.0000 219 89 44
1.8000 0.3643 3.0300 219 89 44
1.8000 0.3643 0.0000 219 89 44
1.9000 0.3643 3.0300 219 89 44
1.9000 0.3643 0.0000 219 89 44
2.0000 0.3643 3.0300 219 89 44
2.0000 0.3643 0.0000 219 89 44
2.1000 0.3643 3.0300 219 89 44
2.1000 0.3643 0.0000 219 89 44
2.2000 0.3643 3.0300 219 89 44
2.2000 0.3643 0.0000 219 89 44
2.3000 0.3643 3.0300 219 89 44
2.3000 0.3643 0.0000 219 89 44
2.4000 0.3643 3.0300 219 89 44
2.4000 0.3643 0.0000 219 89 44
2.5000 0.3643 3.0300 219 89 44
2.5000 0.3643 0.0000 219 89 44
2.6000 0.3643 3.0300 219 89 44
2.6000 0.3643 0.0000 219 89 44
2.6300 0.3643 0.0000 219 89 44
0.0000 0.3643 0.0000 219 89 44
2.6300 0.3643 0.1000 219 89 44
0.0000 0.3643 0.1000 219 89 44
2.6300 0.3643 0.2000 219 89 44
0.0000 0.3643 0.2000 219 89 44
2.6300 0.3643 0.3000 219 89 44
0.0000 0.3643 0.3000 219 89 44
2.6300 0.3643 0.4000 219 89 44
0.0000 0.3643 0.4000 219 89 44
2.6300 0.3643 0.5000 219 89 44
0.0000 0.3643 0.5000 219 89 44
2.6300 0.3643 0.6000 219 89 44
0.0000 0.3643 0.6000 219 89 44
2.6300 0.3643 0.7000 219 89 44
0.0000 0.3643 0.7000 219 89 44
2.6300 0.3643 0.8000 219 89 44
0.0000 0.3643 0.8000 219 89 44
2.6300 0.3643 0.9000 219 89 44
0.0000 0.3643 0.9000 219 89 44
2.6300 0.3643 1.0000 219 89 44
0.0000 0.3643 1.0000 219 89 44
2.6300 0.3643 1.1000 219 89 44
0.0000 0.3643 1.1000 219 89 44
2.6300 0.3643 1.2000 219 89 44
0.0000 0.3643 1.2000 219 89 44
2.6300 0.3643 1.3000 219 89 44
0.0000 0.3643 1.3000 219 89 44
2.6300 0.3643 1.4000 219 89 44
0.0000 0.3643 1.4000 219 89 44
2.6300 0.3643 1.5000 219 89 44
0.0000 0.3643 1.5000 219 89 44
2.6300 0.3643 1.6000 219 89 44
0.0000 0.3643 1.6000 219 89 44
2.6300 0.3643 1.7000 219 89 44
0.0000 0.3643 1.7000 219 89 44
2.6300 0.3643 1.8000 219 89 44
0.0000 0.3643 1.8000 219 89 44
2.6300 0.3643 1.9000 219 89 44
0.0000 0.3643 1.9000 219 89 44
2.6300 0.3643 2.0000 219 89 44
0.0000 0.3643 2.0000 219 89 44
2.6300 0.3643 2.1000 219 89 44
0.0000 0.3643 2.1000 219 89 44
2.6300 0.3643 2.2000 219 89 44
0.0000 0.3643 2.2000 219 89 44
2.6300 0.3643 2.3000 219 89 44
0.0000 0.3643 2.3000 219 89 44
2.6300 0.3643 2.4000 219 89 44
0.0000 0.3643 2.4000 219 89 44
2.6300 0.3643 2.5000 219 89 44
0.0000 0.3643 2.5000 219 89 44
2.6300 0.3643 2.6000 219 89 44
0.0000 0.3643 2.6000 219 89 44
2.6300 0.3643 2.7000 219 89 44
0.0000 0.3643 2.7000 219 89 44
2.6300 0.3643 2.8000 219 89 44
0.0000 0.3643 2.8000 219 89 44
2.6300 0.3643 2.9000 219 89 44
0.0000 0.3643 2.9000 219 89 44
2.6300 0.3643 3.0000 219 89 44
0.0000 0.3643 3.0000 219 89 44
0.0000 0.4590 3.0300 209 113 56
0.0000 0.4590 0.0000 209 113 56
0.1000 0.4590 3.0300 209 113 56
0.1000 0.4590 0.0000 209 113 56
0.2000 0.4590 3.0300 209 113 56
0.2000 0.4590 0.0000 209 113 56
0.3000 0.4590 3.0300 209 113 56
0.3000 0.4590 0.0000 209 113 56
0.4000 0.4590 3.0300 209 113 56
0.4000 0.4590 0.0000 209 113 56
0.5000 0.4590 3.0300 209 113 56
0.5000 0.4590 0.0000 209 113 56
0.6000 0.4590 3.0300 209 113 56
0.6000 0.4590 0.0000 209 113 56
0.7000 0.4590 3.0300 209 113 56
0.7000 0.4590 0.0000 209 113 56
0.8000 0.4590 3.0300 209 113 56
0.8000 0.4590 0.0000 209 113 56
0.9000 0.4590 3.0300 209 113 56
0.9000 0.4590 0.0000 209 113 56
1.0000 0.4590 3.0300 209 113 56
1.0000 0.4590 0.0000 209 113 56
1.1000 0.4590 3.0300 209 113 56
1.1000 0.4590 0.0000 209 113 56
1.2000 0.4590 3.0300 209 113 56
1.2000 0.4590 0.0000 209 113 56
1.3000 0.4590 3.0300 209 113 56
1.3000 0.4590 0.0000 209 113 56
1.4000 0.4590 3.0300 209 113 56
1.4000 0.4590 0.0000 209 113 56
1.5000 0.4590 3.0300 209 113 56
1.5000 0.4590 0.0000 209 113 56
1.6000 0.4590 3.0300 209 113 56
1.6000 0.4590 0.0000 209 113 56
1.7000 0.4590 3.0300 209 113 56
1.7000 0.4590 0.0000 209 113 56
1.8000 0.4590 3.0300 209 113 56
1.8000 0.4590 0.0000 209 113 56
1.9000 0.4590 3.0300 209 113 56
1.9000 0.4590 0.0000 209 113 56
2.0000 0.4590 3.0300 209 113 56
2.0000 0.4590 0.0000 209 113 56
2.1000 0.4590 3.0300 209 113 56
2.1000 0.4590 0.0000 209 113 56
2.2000 0.4590 3.0300 209 113 56
2.2000 0.4590 0.0000 209 113 56
2.3000 0.4590 3.0300 209 113 56
2.3000 0.4590 0.0000 209 113 56
2.4000 0.4590 3.0300 209 113 56
2.4000 0.4590 0.0000 209 113 56
2.5000 0.4590 3.0300 209 113 56
2.5000 0.4590 0.0000 209 113 56
2.6000 0.4590 3.0300 209 113 56
2.6000 0.4590 0.0000 209 113 56
2.6300 0.4590 0.0000 209 113 56
0.0000 0.4590 0.0000 209 113 56
2.6300 0.4590 0.1000 209 113 56
0.0000 0.4590 0.1000 209 113 56
2.6300 0.4590 0.2000 209 113 56
0.0000 0.4590 0.2000 209 113 56
2.6300 0.4590 0.3000 209 113 56
0.0000 0.4590 0.3000 209 113 56
2.6300 0.4590 0.4000 209 113 56
0.0000 0.4590 0.4000 209 113 56
2.6300 0.4590 0.5000 209 113 56
0.0000 0.4590 0.5000 209 113 56
2.6300 0.4590 0.6000 209 113 56
0.0000 0.4590 0.6000 209 113 56
2.6300 0.4590 0.7000 209 113 56
0.0000 0.4590 0.7000 209 113 56
2.6300 0.4590 0.8000 209 113 56
0.0000 0.4590 0.8000 209 113 56
2.6300 0.4590 0.9000 209 113 56
0.0000 0.4590 0.9000 209 113 56
2.6300 0.4590 1.0000 209 113 56
0.0000 0.4590 1.0000 209 113 56
2.6300 0.4590 1.1000 209 113 56
0.0000 0.4590 1.1000 209 113 56
2.6300 0.4590 1.2000 209 113 56
0.0000 0.4590 1.2000 209 113 56
2.6300 0.4590 1.3000 209 113 56
0.0000 0.4590 1.3000 209 113 56
2.6300 0.4590 1.4000 209 113 56
0.0000 0.4590 1.4000 209 113 56
2.6300 0.4590 1.5000 209 113 56
0.0000 0.4590 1.5000 209 113 56
2.6300 0.4590 1.6000 209 113 56
0.0000 0.4590 1.6000 209 113 56
2.6300 0.4590 1.7000 209 113 56
0.0000 0.4590 1.7000 209 113 56
2.6300 0.4590 1.8000 209 113 56
0.0000 0.4590 1.8000 209 113 56
2.6300 0.4590 1.9000 209 113 56
0.0000 0.4590 1.9000 209 113 56
2.6300 0.4590 2.0000 209 113 56
0.0000 0.4590 2.0000 209 113 56
2.6300 0.4590 2.1000 209 113 56
0.0000 0.4590 2.1000 209 113 56
2.6300 0.4590 2.2000 209 113 56
0.0000 0.4590 2.2000 209 113 56
2.6300 0.4590 2.3000 209 113 56
0.0000 0.4590 2.3000 209 113 56
2.6300 0.4590 2.4000 209 113 56
0.0000 0.4590 2.4000 209 113 56
2.6300 0.4590 2.5000 209 113 56
0.0000 0.4590 2.5000 209 113 56
2.6300 0.4590 2.6000 209 113 56
0.0000 0.4590 2.6000 209 113 56
2.6300 0.4590 2.7000 209 113 56
0.0000 0.4590 2.7000 209 113 56
2.6300 0.4590 2.8000 209 113 56
0.0000 0.4590 2.8000 209 113 56
2.6300 0.4590 2.9000 209 113 56
0.0000 0.4590 2.9000 209 113 56
2.6300 0.4590 3.0000 209 113 56
0.0000 0.4590 3.0000 209 113 56
0.0000 0.5538 3.0300 200 136 68
0.0000 0.5538 0.0000 200 136 68
0.1000 0.5538 3.0300 200 136 68
0.1000 0.5538 0.0000 200 136 68
0.2000 0.5538 3.0300 200 136 68
0.2000 0.5538 0.0000 200 136 68
0.3000 0.5538 3.0300 200 136 68
0.3000 0.5538 0.0000 200 136 68
0.4000 0.5538 3.0300 200 136 68
0.4000 0.5538 0.0000 200 136 68
0.5000 0.5538 3.0300 200 136 68
0.5000 0.5538 0.0000 200 136 68
0.6000 0.5538 3.0300 200 136 68
0.6000 0.5538 0.0000 200 136 68
0.7000 0.5538 3.0300 200 136 68
0.7000 0.5538 0.0000 200 136 68
0.8000 0.5538 3.0300 200 136 68
0.8000 0.5538 0.0000 200 136 68
0.9000 0.5538 3.0300 200 136 68
0.9000 0.5538 0.0000 200 136 68
1.0000 0.5538 3.0300 200 136 68
1.0000 0.5538 0.0000 200 136 68
1.1000 0.5538 3.0300 200 136 68
1.1000 0.5538 0.0000 200 136 68
1.2000 0.5538 3.0300 200 136 68
1.2000 0.5538 0.0000 200 136 68
1.3000 0.5538 3.0300 200 136 68
1.3000 0.5538 0.0000 200 136 68
1.4000 0.5538 3.0300 200 136 68
1.4000 0.5538 0.0000 200 136 68
1.5000 0.5538 3.0300 200 136 68
1.5000 0.5538 0.0000 200 136 68
1.6000 0.5538 3.0300 200 136 68
1.6000 0.5538 0.0000 200 136 68
1.7000 0.5538 3.0300 200 136 68
1.7000 0.5538 0.0000 200 136 68
1.8000 0.5538 3.0300 200 136 68
1.8000 0.5538 0.0000 200 136 68
1.9000 0.5538 3.0300 200 136 68
1.9000 0.5538 0.0000 200 136 68
2.0000 0.5538 3.0300 200 136 68
2.0000 0.5538 0.0000 200 136 68
2.1000 0.5538 3.0300 200 136 68
2.1000 0.5538 0.0000 200 136 68
2.2000 0.5538 3.0300 200 136 68
2.2000 0.5538 0.0000 200 136 68
2.3000 0.5538 3.0300 200 136 68
2.3000 0.5538 0.0000 200 136 68
2.4000 0.5538 3.0300 200 136 68
2.4000 0.5538 0.0000 200 136 68
2.5000 0.5538 3.0300 200 136 68
2.5000 0.5538 0.0000 200 136 68
2.6000 0.5538 3.0300 200 136 68
2.6000 0.5538 0.0000 200 136 68
2.6300 0.5538 0.0000 200 136 68
0.0000 0.5538 0.0000 200 136 68
2.6300 0.5538 0.1000 200 136 68
0.0000 0.5538 0.1000 200 136 68
2.6300 0.5538 0.2000 200 136 68
0.0000 0.5538 0.2000 200 136 68
2.6300 0.5538 0.3000 200 136 68
0.0000 0.5538 0.3000 200 136 68
2.6300 0.5538 0.4000 200 136 68
0.0000 0.5538 0.4000 200 136 68
2.6300 0.5538 0.5000 200 136 68
0.0000 0.5538 0.5000 200 136 68
2.6300 0.5538 0.6000 200 136 68
0.0000 0.5538 0.6000 200 136 68
2.6300 0.5538 0.7000 200 136 68
0.0000 0.5538 0.7000 200 136 68
2.6300 0.5538 0.8000 200 136 68
0.0000 0.5538 0.8000 200 136 68
2.6300 0.5538 0.9000 200 136 68
0.0000 0.5538 0.9000 200 136 68
2.6300 0.5538 1.0000 200 136 68
0.0000 0.5538 1.0000 200 136 68
2.6300 0.5538 1.1000 200 136 68
0.0000 0.5538 1.1000 200 136 68
2.6300 0.5538 1.2000 200 136 68
0.0000 0.5538 1.2000 200 136 68
2.6300 0.5538 1.3000 200 136 68
0.0000 0.5538 1.3000 200 136 68
2.6300 0.5538 1.4000 200 136 68
0.0000 0.5538 1.4000 200 136 68
2.6300 0.5538 1.5000 200 136 68
0.0000 0.5538 1.5000 200 136 68
2.6300 0.5538 1.6000 200 136 68
0.0000 0.5538 1.6000 200 136 68
2.6300 0.5538 1.7000 200 136 68
0.0000 0.5538 1.7000 200 136 68
2.6300 0.5538 1.8000 200 136 68
0.0000 0.5538 1.8000 200 136 68
2.6300 0.5538 1.9000 200 136 68
0.0000 0.5538 1.9000 200 136 68
2.6300 0.5538 2.0000 200 136 68
0.0000 0.5538 2.0000 200 136 68
2.6300 0.5538 2.1000 200 136 68
0.0000 0.5538 2.1000 200 136 68
2.6300 0.5538 2.2000 200 136 68
0.0000 0.5538 2.2000 200 136 68
2.6300 0.5538 2.3000 200 136 68
0.0000 0.5538 2.3000 200 136 68
2.6300 0.5538 2.4000 200 136 68
0.0000 0.5538 2.4000 200 136 68
2.6300 0.5538 2.5000 200 136 68
0.0000 0.5538 2.5000 200 136 68
2.6300 0.5538 2.6000 200 136 68
0.0000 0.5538 2.6000 200 136 68
2.6300 0.5538 2.7000 200 136 68
0.0000 0.5538 2.7000 200 136 68
2.6300 0.5538 2.8000 200 136 68
0.0000 0.5538 2.8000 200 136 68
2.6300 0.5538 2.9000 200 136 68
0.0000 0.5538 2.9000 200 136 68
2.6300 0.5538 3.0000 200 136 68
0.0000 0.5538 3.0000 200 136 68
0.0000 0.6486 3.0300 191 159 79
0.0000 0.6486 0.0000 191 159 79
0.1000 0.6486 3.0300 191 159 79
0.1000 0.6486 0.0000 191 159 79
0.2000 0.6486 3.0300 191 159 79
0.2000 0.6486 0.0000 191 159 79
0.3000 0.6486 3.0300 191 159 79
0.3000 0.6486 0.0000 191 159 79
0.4000 0.6486 3.0300 191 159 79
0.4000 0.6486 0.0000 191 159 79
0.5000 0.6486 3.0300 191 159 79
0.5000 0.6486 0.0000 191 159 79
0.6000 0.6486 3.0300 191 159 79
0.6000 0.6486 0.0000 191 159 79
0.7000 0.6486 3.0300 191 159 79
0.7000 0.6486 0.0000 191 159 79
0.8000 0.6486 3.0300 191 159 79
0.8000 0.6486 0.0000 191 159 79
0.9000 0.6486 3.0300 191 159 79
0.9000 0.6486 0.0000 191 159 79
1.0000 0.6486 3.0300 191 159 79
1.0000 0.6486 0.0000 191 159 79
1.1000 0.6486 3.0300 191 159 79
1.1000 0.6486 0.0000 191 159 79
1.2000 0.6486 3.0300 191 159 79
1.2000 0.6486 0.0000 191 159 79
1.3000 0.6486 3.0300 191 159 79
1.3000 0.6486 0.0000 191 159 79
1.4000 0.6486 3.0300 191 159 79
1.4000 0.6486 0.0000 191 159 79
1.5000 0.6486 3.0300 191 159 79
1.5000 0.6486 0.0000 191 159 79
1.6000 0.6486 3.0300 191 159 79
1.6000 0.6486 0.0000 191 159 79
1.7000 0.6486 3.0300 191 159 79
1.7000 0.6486 0.0000 191 159 79
1.8000 0.6486 3.0300 191 159 79
1.8000 0.6486 0.0000 191 159 79
1.9000 0.6486 3.0300 191 159 79
1.9000 0.6486 0.0000 191 159 79
2.0000 0.6486 3.0300 191 159 79
2.0000 0.6486 0.0000 191 159 79
2.1000 0.6486 3.0300 191 159 79
2.1000 0.6486 0.0000 191 159 79
2.2000 0.6486 3.0300 191 159 79
2.2000 0.6486 0.0000 191 159 79
2.3000 0.6486 3.0300 191 159 79
2.3000 0.6486 0.0000 191 159 79
2.4000 0.6486 3.0300 191 159 79
2.4000 0.6486 0.0000 191 159 79
2.5000 0.6486 3.0300 191 159 79
2.5000 0.6486 0.0000 191 159 79
2.6000 0.6486 3.0300 191 159 79
2.6000 0.6486 0.0000 191 159 79
2.6300 0.6486 0.0000 191 159 79
0.0000 0.6486 0.0000 191 159 79
2.6300 0.6486 0.1000 191 159 79
0.0000 0.6486 0.1000 191 159 79
2.6300 0.6486 0.2000 191 159 79
0.0000 0.6486 0.2000 191 159 79
2.6300 0.6486 0.3000 191 159 79
0.0000 0.6486 0.3000 191 159 79
2.6300 0.6486 0.4000 191 159 79
0.0000 0.6486 0.4000 191 159 79
2.6300 0.6486 0.5000 191 159 79
0.0000 0.6486 0.5000 191 159 79
2.6300 0.6486 0.6000 191 159 79
0.0000 0.6486 0.6000 191 159 79
2.6300 0.6486 0.7000 191 159 79
0.0000 0.6486 0.7000 191 159 79
2.6300 0.6486 0.8000 191 159 79
0.0000 0.6486 0.8000 191 159 79
2.6300 0.6486 0.9000 191 159 79
0.0000 0.6486 0.9000 191 159 79
2.6300 0.6486 1.0000 191 159 79
0.0000 0.6486 1.0000 191 159 79
2.6300 0.6486 1.1000 191 159 79
0.0000 0.6486 1.1000 191 159 79
2.6300 0.6486 1.2000 191 159 79
0.0000 0.6486 1.2000 191 159 79
2.6300 0.6486 1.3000 191 159 79
0.0000 0.6486 1.3000 191 159 79
2.6300 0.6486 1.4000 191 159 79
0.0000 0.6486 1.4000 191 159 79
2.6300 0.6486 1.5000 191 159 79
0.0000 0.6486 1.5000 191 159 79
2.6300 0.6486 1.6000 191 159 79
0.0000 0.6486 1.6000 191 159 79
2.6300 0.6486 1.7000 191 159 79
0.0000 0.6486 1.7000 191 159 79
2.6300 0.6486 1.8000 191 159 79
0.0000 0.6486 1.8000 191 159 79
2.6300 0.6486 1.9000 191 159 79
0.0000 0.6486 1.9000 191 159 79
2.6300 0.6486 2.0000 191 159 79
0.0000 0.6486 2.0000 191 159 79
2.6300 0.6486 2.1000 191 159 79
0.0000 0.6486 2.1000 191 159 79
2.6300 0.6486 2.2000 191 159 79
0.0000 0.6486 2.2000 191 159 79
2.6300 0.6486 2.3000 191 159 79
0.0000 0.6486 2.3000 191 159 79
2.6300 0.6486 2.4000 191 159 79
0.0000 0.6486 2.4000 191 159 79
2.6300 0.6486 2.5000 191 159 79
0.0000 0.6486 2.5000 191 159 79
2.6300 0.6486 2.6000 191 159 79
0.0000 0.6486 2.6000 191 159 79
2.6300 0.6486 2.7000 191 159 79
0.0000 0.6486 2.7000 191 159 79
2.6300 0.6486 2.8000 191 159 79
0.0000 0.6486 2.8000 191 159 79
2.6300 0.6486 2.9000 191 159 79
0.0000 0.6486 2.9000 191 159 79
2.6300 0.6486 3.0000 191 159 79
0.0000 0.6486 3.0000 191 159 79
0.0000 0.7433 3.0300 181 183 91
0.0000 0.7433 0.0000 181 183 91
0.1000 0.7433 3.0300 181 183 91
0.1000 0.7433 0.0000 181 183 91
0.2000 0.7433 3.0300 181 183 91
0.2000 0.7433 0.0000 181 183 91
0.3000 0.7433 3.0300 181 183 91
0.3000 0.7433 0.0000 181 183 91
0.4000 0.7433 3.0300 181 183 91
0.4000 0.7433 0.0000 181 183 91
0.5000 0.7433 3.0300 181 183 91
0.5000 0.7433 0.0000 181 183 91
0.6000 0.7433 3.0300 181 183 91
0.6000 0.7433 0.0000 181 183 91
0.7000 0.7433 3.0300 181 183 91
0.7000 0.7433 0.0000 181 183 91
0.8000 0.7433 3.0300 181 183 91
0.8000 0.7433 0.0000 181 183 91
0.9000 0.7433 3.0300 181 183 91
0.9000 0.7433 0.0000 181 183 91
1.0000 0.7433 3.0300 181 183 91
1.0000 0.7433 0.0000 181 183 91
1.1000 0.7433 3.0300 181 183 91
1.1000 0.7433 0.0000 181 183 91
1.2000 0.7433 3.0300 181 183 91
1.2000 0.7433 0.0000 181 183 91
1.3000 0.7433 3.0300 181 183 91
1.3000 0.7433 0.0000 181 183 91
1.4000 0.7433 3.0300 181 183 91
1.4000 0.7433 0.0000 181 183 91
1.5000 0.7433 3.0300 181 183 91
1.5000 0.7433 0.0000 181 183 91
1.6000 0.7433 3.0300 181 183 91
1.6000 0.7433 0.0000 181 183 91
1.7000 0.7433 3.0300 181 183 91
1.7000 0.7433 0.0000 181 183 91
1.8000 0.7433 3.0300 181 183 91
1.8000 0.7433 0.0000 181 183 91
1.9000 0.7433 3.0300 181 183 91
1.9000 0.7433 0.0000 181 183 91
2.0000 0.7433 3.0300 181 183 91
2.0000 0.7433 0.0000 181 183 91
2.1000 0.7433 3.0300 181 183 91
2.1000 0.7433 0.0000 181 183 91
2.2000 0.7433 3.0300 181 183 91
2.2000 0.7433 0.0000 181 183 91
2.3000 0.7433 3.0300 181 183 91
2.3000 0.7433 0.0000 181 183 91
2.4000 0.7433 3.0300 181 183 91
2.4000 0.7433 0.0000 181 183 91
2.5000 0.7433 3.0300 181 183 91
2.5000 0.7433 0.0000 181 183 91
2.6000 0.7433 3.0300 181 183 91
2.6000 0.7433 0.0000 181 183 91
2.6300 0.7433 0.0000 181 183 91
0.0000 0.7433 0.0000 181 183 91
2.6300 0.7433 0.1000 181 183 91
0.0000 0.7433 0.1000 181 183 91
2.6300 0.7433 0.2000 181 183 91
0.0000 0.7433 0.2000 181 183 91
2.6300 0.7433 0.3000 181 183 91
0.0000 0.7433 0.3000 181 183 91
2.6300 0.7433 0.4000 181 183 91
0.0000 0.7433 0.4000 181 183 91
2.6300 0.7433 0.5000 181 183 91
0.0000 0.7433 0.5000 181 183 91
2.6300 0.7433 0.6000 181 183 91
0.0000 0.7433 0.6000 181 183 91
2.6300 0.7433 0.7000 181 183 91
0.0000 0.7433 0.7000 181 183 91
2.6300 0.7433 0.8000 181 183 91
0.0000 0.7433 0.8000 181 183 91
2.6300 0.7433 0.9000 181 183 91
0.0000 0.7433 0.9000 181 183 91
2.6300 0.7433 1.0000 181 183 91
0.0000 0.7433 1.0000 181 183 91
2.6300 0.7433 1.1000 181 183 91
0.0000 0.7433 1.1000 181 183 91
2.6300 0.7433 1.2000 181 183 91
0.0000 0.7433 1.2000 181 183 91
2.6300 0.7433 1.3000 181 183 91
0.0000 0.7433 1.3000 181 183 91
2.6300 0.7433 1.4000 181 183 91
0.0000 0.7433 1.4000 181 183 91
2.6300 0.7433 1.5000 181 183 91
0.0000 0.7433 1.5000 181 183 91
2.6300 0.7433 1.6000 181 183 91
0.0000 0.7433 1.6000 181 183 91
2.6300 0.7433 1.7000 181 183 91
0.0000 0.7433 1.7000 181 183 91
2.6300 0.7433 1.8000 181 183 91
0.0000 0.7433 1.8000 181 183 91
2.6300 0.7433 1.9000 181 183 91
0.0000 0.7433 1.9000 181 183 91
2.6300 0.7433 2.0000 181 183 91
0.0000 0.7433 2.0000 181 183 91
2.6300 0.7433 2.1000 181 183 91
0.0000 0.7433 2.1000 181 183 91
2.6300 0.7433 2.2000 181 183 91
0.0000 0.7433 2.2000 181 183 91
2.6300 0.7433 2.3000 181 183 91
0.0000 0.7433 2.3000 181 183 91
2.6300 0.7433 2.4000 181 183 91
0.0000 0.7433 2.4000 181 183 91
2.6300 0.7433 2.5000 181 183 91
0.0000 0.7433 2.5000 181 183 91
2.6300 0.7433 2.6000 181 183 91
0.0000 0.7433 2.6000 181 183 91
2.6300 0.7433 2.7000 181 183 91
0.0000 0.7433 2.7000 181 183 91
2.6300 0.7433 2.8000 181 183 91
0.0000 0.7433 2.8000 181 183 91
2.6300 0.7433 2.9000 181 183 91
0.0000 0.7433 2.9000 181 183 91
2.6300 0.7433 3.0000 181 183 91
0.0000 0.7433 3.0000 181 183 91
0.0000 0.8381 3.0300 172 206 103
0.0000 0.8381 0.0000 172 206 103
0.1000 0.8381 3.0300 172 206 103
0.1000 0.8381 0.0000 172 206 103
0.2000 0.8381 3.0300 172 206 103
0.2000 0.8381 0.0000 172 206 103
0.3000 0.8381 3.0300 172 206 103
0.3000 0.8381 0.0000 172 206 103
0.4000 0.8381 3.0300 172 206 103
0.4000 0.8381 0.0000 172 206 103
0.5000 0.8381 3.0300 172 206 103
0.5000 0.8381 0.0000 172 206 103
0.6000 0.8381 3.0300 172 206 103
0.6000 0.8381 0.0000 172 206 103
0.7000 0.8381 3.0300 172 206 103
0.7000 0.8381 0.0000 172 206 103
0.8000 0.8381 3.0300 172 206 103
0.8000 0.8381 0.0000 172 206 103
0.9000 0.8381 3.0300 172 206 103
0.9000 0.8381 0.0000 172 206 103
1.0000 0.8381 3.0300 172 206 103
1.0000 0.8381 0.0000 172 206 103
1.1000 0.8381 3.0300 172 206 103
1.1000 0.8381 0.0000 172 206 103
1.2000 0.8381 3.0300 172 206 103
1.2000 0.8381 0.0000 172 206 103
1.3000 0.8381 3.0300 172 206 103
1.3000 0.8381 0.0000 172 206 103
1.4000 0.8381 3.0300 172 206 103
1.4000 0.8381 0.0000 172 206 103
1.5000 0.8381 3.0300 172 206 103
1.5000 0.8381 0.0000 172 206 103
1.6000 0.8381 3.0300 172 206 103
1.6000 0.8381 0.0000 172 206 103
1.7000 0.8381 3.0300 172 206 103
1.7000 0.8381 0.0000 172 206 103
1.8000 0.8381 3.0300 172 206 103
1.8000 0.8381 0.0000 172 206 103
1.9000 0.8381 3.0300 172 206 103
1.9000 0.8381 0.0000 172 206 103
2.0000 0.8381 3.0300 172 206 103
2.0000 0.8381 0.0000 172 206 103
2.1000 0.8381 3.0300 172 206 103
2.1000 0.8381 0.0000 172 206 103
2.2000 0.8381 3.0300 172 206 103
2.2000 0.8381 0.0000 172 206 103
2.3000 0.8381 3.0300 172 206 103
2.3000 0.8381 0.0000 172 206 103
2.4000 0.8381 3.0300 172 206 103
2.4000 0.8381 0.0000 172 206 103
2.5000 0.8381 3.0300 172 206 103
2.5000 0.8381 0.0000 172 206 103
2.6000 0.8381 3.0300 172 206 103
2.6000 0.8381 0.0000 172 206 103
2.6300 0.8381 0.0000 172 206 103
0.0000 0.8381 0.0000 172 206 103
2.6300 0.8381 0.1000 172 206 103
0.0000 0.8381 0.1000 172 206 103
2.6300 0.8381 0.2000 172 206 103
0.0000 0.8381 0.2000 172 206 103
2.6300 0.8381 0.3000 172 206 103
0.0000 0.8381 0.3000 172 206 103
2.6300 0.8381 0.4000 172 206 103
0.0000 0.8381 0.4000 172 206 103
2.6300 0.8381 0.5000 172 206 103
0.0000 0.8381 0.5000 172 206 103
2.6300 0.8381 0.6000 172 206 103
0.0000 0.8381 0.6000 172 206 103
2.6300 0.8381 0.7000 172 206 103
0.0000 0.8381 0.7000 172 206 103
2.6300 0.8381 0.8000 172 206 103
0.0000 0.8381 0.8000 172 206 103
2.6300 0.8381 0.9000 172 206 103
0.0000 0.8381 0.9000 172 206 103
2.6300 0.8381 1.0000 172 206 103
0.0000 0.8381 1.0000 172 206 103
2.6300 0.8381 1.1000 172 206 103
0.0000 0.8381 1.1000 172 206 103
2.6300 0.8381 1.2000 172 206 103
0.0000 0.8381 1.2000 172 206 103
2.6300 0.8381 1.3000 172 206 103
0.0000 0.8381 1.3000 172 206 103
2.6300 0.8381 1.4000 172 206 103
0.0000 0.8381 1.4000 172 206 103
2.6300 0.8381 1.5000 172 206 103
0.0000 0.8381 1.5000 172 206 103
2.6300 0.8381 1.6000 172 206 103
0.0000 0.8381 1.6000 172 206 103
2.6300 0.8381 1.7000 172 206 103
0.0000 0.8381 1.7000 172 206 103
2.6300 0.8381 1.8000 172 206 103
0.0000 0.8381 1.8000 172 206 103
2.6300 0.8381 1.9000 172 206 103
0.0000 0.8381 1.9000 172 206 103
2.6300 0.8381 2.0000 172 206 103
0.0000 0.8381 2.0000 172 206 103
2.6300 0.8381 2.1000 172 206 103
0.0000 0.8381 2.1000 172 206 103
2.6300 0.8381 2.2000 172 206 103
0.0000 0.8381 2.2000 172 206 103
2.6300 0.8381 2.3000 172 206 103
0.0000 0.8381 2.3000 172 206 103
2.6300 0.8381 2.4000 172 206 103
0.0000 0.8381 2.4000 172 206 103
2.6300 0.8381 2.5000 172 206 103
0.0000 0.8381 2.5000 172 206 103
2.6300 0.8381 2.6000 172 206 103
0.0000 0.8381 2.6000 172 206 103
2.6300 0.8381 2.7000 172 206 103
0.0000 0.8381 2.7000 172 206 103
2.6300 0.8381 2.8000 172 206 103
0.0000 0.8381 2.8000 172 206 103
2.6300 0.8381 2.9000 172 206 103
0.0000 0.8381 2.9000 172 206 103
2.6300 0.8381 3.0000 172 206 103
0.0000 0.8381 3.0000 172 206 103
0.0000 0.9329 3.0300 163 229 114
0.0000 0.9329 0.0000 163 229 114
0.1000 0.9329 3.0300 163 229 114
0.1000 0.9329 0.0000 163 229 114
0.2000 0.9329 3.0300 163 229 114
0.2000 0.9329 0.0000 163 229 114
0.3000 0.9329 3.0300 163 229 114
0.3000 0.9329 0.0000 163 229 114
0.4000 0.9329 3.0300 163 229 114
0.4000 0.9329 0.0000 163 229 114
0.5000 0.9329 3.0300 163 229 114
0.5000 0.9329 0.0000 163 229 114
0.6000 0.9329 3.0300 163 229 114
0.6000 0.9329 0.0000 163 229 114
0.7000 0.9329 3.0300 163 229 114
0.7000 0.9329 0.0000 163 229 114
0.8000 0.9329 3.0300 163 229 114
0.8000 0.9329 0.0000 163 229 114
0.9000 0.9329 3.0300 163 229 114
0.9000 0.9329 0.0000 163 229 114
1.0000 0.9329 3.0300 163 229 114
1.0000 0.9329 0.0000 163 229 114
1.1000 0.9329 3.0300 163 229 114
1.1000 0.9329 0.0000 163 229 114
1.2000 0.9329 3.0300 163 229 114
1.2000 0.9329 0.0000 163 229 114
1.3000 0.9329 3.0300 163 229 114
1.3000 0.9329 0.0000 163 229 114
1.4000 0.9329 3.0300 163 229 114
1.4000 0.9329 0.0000 163 229 114
1.5000 0.9329 3.0300 163 229 114
1.5000 0.9329 0.0000 163 229 114
1.6000 0.9329 3.0300 163 229 114
1.6000 0.9329 0.0000 163 229 114
1.7000 0.9329 3.0300 163 229 114
1.7000 0.9329 0.0000 163 229 114
1.8000 0.9329 3.0300 163 229 114
1.8000 0.9329 0.0000 163 229 114
1.9000 0.9329 3.0300 163 229 114
1.9000 0.9329 0.0000 163 229 114
2.0000 0.9329 3.0300 163 229 114
2.0000 0.9329 0.0000 163 229 114
2.1000 0.9329 3.0300 163 229 114
2.1000 0.9329 0.0000 163 229 114
2.2000 0.9329 3.0300 163 229 114
2.2000 0.9329 0.0000 163 229 114
2.3000 0.9329 3.0300 163 229 114
2.3000 0.9329 0.0000 163 229 114
2.4000 0.9329 3.0300 163 229 114
2.4000 0.9329 0.0000 163 229 114
2.5000 0.9329 3.0300 163 229 114
2.5000 0.9329 0.0000 163 229 114
2.6000 0.9329 3.0300 163 229 114
2.6000 0.9329 0.0000 163 229 114
2.6300 0.9329 0.0000 163 229 114
0.0000 0.9329 0.0000 163 229 114
2.6300 0.9329 0.1000 163 229 114
0.0000 0.9329 0.1000 163 229 114
2.6300 0.9329 0.2000 163 229 114
0.0000 0.9329 0.2000 163 229 114
2.6300 0.9329 0.3000 163 229 114
0.0000 0.9329 0.3000 163 229 114
2.6300 0.9329 0.4000 163 229 114
0.0000 0.9329 0.4000 163 229 114
2.6300 0.9329 0.5000 163 229 114
0.0000 0.9329 0.5000 163 229 114
2.6300 0.9329 0.6000 163 229 114
0.0000 0.9329 0.6000 163 229 114
2.6300 0.9329 0.7000 163 229 114
0.0000 0.9329 0.7000 163 229 114
2.6300 0.9329 0.8000 163 229 114
0.0000 0.9329 0.8000 163 229 114
2.6300 0.9329 0.9000 163 229 114
0.0000 0.9329 0.9000 163 229 114
2.6300 0.9329 1.0000 163 229 114
0.0000 0.9329 1.0000 163 229 114
2.6300 0.9329 1.1000 163 229 114
0.0000 0.9329 1.1000 163 229 114
2.6300 0.9329 1.2000 163 229 114
0.0000 0.9329 1.2000 163 229 114
2.6300 0.9329 1.3000 163 229 114
0.0000 0.9329 1.3000 163 229 114
2.6300 0.9329 1.4000 163 229 114
0.0000 0.9329 1.4000 163 229 114
2.6300 0.9329 1.5000 163 229 114
0.0000 0.9329 1.5000 163 229 114
2.6300 0.9329 1.6000 163 229 114
0.0000 0.9329 1.6000 163 229 114
2.6300 0.9329 1.7000 163 229 114
0.0000 0.9329 1.7000 163 229 114
2.6300 0.9329 1.8000 163 229 114
0.0000 0.9329 1.8000 163 229 114
2.6300 0.9329 1.9000 163 229 114
0.0000 0.9329 1.9000 163 229 114
2.6300 0.9329 2.0000 163 229 114
0.0000 0.9329 2.0000 163 229 114
2.6300 0.9329 2.1000 163 229 114
0.0000 0.9329 2.1000 163 229 114
2.6300 0.9329 2.2000 163 229 114
0.0000 0.9329 2.2000 163 229 114
2.6300 0.9329 2.3000 163 229 114
0.0000 0.9329 2.3000 163 229 114
2.6300 0.9329 2.4000 163 229 114
0.0000 0.9329 2.4000 163 229 114
2.6300 0.9329 2.5000 163 229 114
0.0000 0.9329 2.5000 163 229 114
2.6300 0.9329 2.6000 163 229 114
0.0000 0.9329 2.6000 163 229 114
2.6300 0.9329 2.7000 163 229 114
0.0000 0.9329 2.7000 163 229 114
2.6300 0.9329 2.8000 163 229 114
0.0000 0.9329 2.8000 163 229 114
2.6300 0.9329 2.9000 163 229 114
0.0000 0.9329 2.9000 163 229 114
2.6300 0.9329 3.0000 163 229 114
0.0000 0.9329 3.0000 163 229 114
0.0000 1.0276 3.0300 153 253 126
0.0000 1.0276 0.0000 153 253 126
0.1000 1.0276 3.0300 153 253 126
0.1000 1.0276 0.0000 153 253 126
0.2000 1.0276 3.0300 153 253 126
0.2000 1.0276 0.0000 153 253 126
0.3000 1.0276 3.0300 153 253 126
0.3000 1.0276 0.0000 153 253 126
0.4000 1.0276 3.0300 153 253 126
0.4000 1.0276 0.0000 153 253 126
0.5000 1.0276 3.0300 153 253 126
0.5000 1.0276 0.0000 153 253 126
0.6000 1.0276 3.0300 153 253 126
0.6000 1.0276 0.0000 153 253 126
0.7000 1.0276 3.0300 153 253 126
0.7000 1.0276 0.0000 153 253 126
0.8000 1.0276 3.0300 153 253 126
0.8000 1.0276 0.0000 153 253 126
0.9000 1.0276 3.0300 153 253 126
0.9000 1.0276 0.0000 153 253 126
1.0000 1.0276 3.0300 153 253 126
1.0000 1.0276 0.0000 153 253 126
1.1000 1.0276 3.0300 153 253 126
1.1000 1.0276 0.0000 153 253 126
1.2000 1.0276 3.0300 153 253 126
1.2000 1.0276 0.0000 153 253 126
1.3000 1.0276 3.0300 153 253 126
1.3000 1.0276 0.0000 153 253 126
1.4000 1.0276 3.0300 153 253 126
1.4000 1.0276 0.0000 153 253 126
1.5000 1.0276 3.0300 153 253 126
1.5000 1.0276 0.0000 153 253 126
1.6000 1.0276 3.0300 153 253 126
1.6000 1.0276 0.0000 153 253 126
1.7000 1.0276 3.0300 153 253 126
1.7000 1.0276 0.0000 153 253 126
1.8000 1.0276 3.0300 153 253 126
1.8000 1.0276 0.0000 153 253 126
1.9000 1.0276 3.0300 153 253 126
1.9000 1.0276 0.0000 153 253 126
2.0000 1.0276 3.0300 153 253 126
2.0000 1.0276 0.0000 153 253 126
2.1000 1.0276 3.0300 153 253 126
2.1000 1.0276 0.0000 153 253 126
2.2000 1.0276 3.0300 153 253 126
2.2000 1.0276 0.0000 153 253 126
2.3000 1.0276 3.0300 153 253 126
2.3000 1.0276 0.0000 153 253 126
2.4000 1.0276 3.0300 153 253 126
2.4000 1.0276 0.0000 153 253 126
2.5000 1.0276 3.0300 153 253 126
2.5000 1.0276 0.0000 153 253 126
2.6000 1.0276 3.0300 153 253 126
2.6000 1.0276 0.0000 153 253 126
2.6300 1.0276 0.0000 153 253 126
0.0000 1.0276 0.0000 153 253 126
2.6300 1.0276 0.1000 153 253 126
0.0000 1.0276 0.1000 153 253 126
2.6300 1.0276 0.2000 153 253 126
0.0000 1.0276 0.2000 153 253 126
2.6300 1.0276 0.3000 153 253 126
0.0000 1.0276 0.3000 153 253 126
2.6300 1.0276 0.4000 153 253 126
0.0000 1.0276 0.4000 153 253 126
2.6300 1.0276 0.5000 153 253 126
0.0000 1.0276 0.5000 153 253 126
2.6300 1.0276 0.6000 153 253 126
0.0000 1.0276 0.6000 153 253 126
2.6300 1.0276 0.7000 153 253 126
0.0000 1.0276 0.7000 153 253 126
2.6300 1.0276 0.8000 153 253 126
0.0000 1.0276 0.8000 153 253 126
2.6300 1.0276 0.9000 153 253 126
0.0000 1.0276 0.9000 153 253 126
2.6300 1.0276 1.0000 153 253 126
0.0000 1.0276 1.0000 153 253 126
2.6300 1.0276 1.1000 153 253 126
0.0000 1.0276 1.1000 153 253 126
2.6300 1.0276 1.2000 153 253 126
0.0000 1.0276 1.2000 153 253 126
2.6300 1.0276 1.3000 153 253 126
0.0000 1.0276 1.3000 153 253 126
2.6300 1.0276 1.4000 153 253 126
0.0000 1.0276 1.4000 153 253 126
2.6300 1.0276 1.5000 153 253 126
0.0000 1.0276 1.5000 153 253 126
2.6300 1.0276 1.6000 153 253 126
0.0000 1.0276 1.6000 153 253 126
2.6300 1.0276 1.7000 153 253 126
0.0000 1.0276 1.7000 153 253 126
2.6300 1.0276 1.8000 153 253 126
0.0000 1.0276 1.8000 153 253 126
2.6300 1.0276 1.9000 153 253 126
0.0000 1.0276 1.9000 153 253 126
2.6300 1.0276 2.0000 153 253 126
0.0000 1.0276 2.0000 153 253 126
2.6300 1.0276 2.1000 153 253 126
0.0000 1.0276 2.1000 153 253 126
2.6300 1.0276 2.2000 153 253 126
0.0000 1.0276 2.2000 153 253 126
2.6300 1.0276 2.3000 153 253 126
0.0000 1.0276 2.3000 153 253 126
2.6300 1.0276 2.4000 153 253 126
0.0000 1.0276 2.4000 153 253 126
2.6300 1.0276 2.5000 153 253 126
0.0000 1.0276 2.5000 153 253 126
2.6300 1.0276 2.6000 153 253 126
0.0000 1.0276 2.6000 153 253 126
2.6300 1.0276 2.7000 153 253 126
0.0000 1.0276 2.7000 153 253 126
2.6300 1.0276 2.8000 153 253 126
0.0000 1.0276 2.8000 153 253 126
2.6300 1.0276 2.9000 153 253 126
0.0000 1.0276 2.9000 153 253 126
2.6300 1.0276 3.0000 153 253 126
0.0000 1.0276 3.0000 153 253 126
0.0000 1.1224 3.0300 144 233 138
0.0000 1.1224 0.0000 144 233 138
0.1000 1.1224 3.0300 144 233 138
0.1000 1.1224 0.0000 144 233 138
0.2000 1.1224 3.0300 144 233 138
0.2000 1.1224 0.0000 144 233 138
0.3000 1.1224 3.0300 144 233 138
0.3000 1.1224 0.0000 144 233 138
0.4000 1.1224 3.0300 144 233 138
0.4000 1.1224 0.0000 144 233 138
0.5000 1.1224 3.0300 144 233 138
0.5000 1.1224 0.0000 144 233 138
0.6000 1.1224 3.0300 144 233 138
0.6000 1.1224 0.0000 144 233 138
0.7000 1.1224 3.0300 144 233 138
0.7000 1.1224 0.0000 144 233 138
0.8000 1.1224 3.0300 144 233 138
0.8000 1.1224 0.0000 144 233 138
0.9000 1.1224 3.0300 144 233 138
0.9000 1.1224 0.0000 144 233 138
1.0000 1.1224 3.0300 144 233 138
1.0000 1.1224 0.0000 144 233 138
1.1000 1.1224 3.0300 144 233 138
1.1000 1.1224 0.0000 144 233 138
1.2000 1.1224 3.0300 144 233 138
1.2000 1.1224 0.0000 144 233 138
1.3000 1.1224 3.0300 144 233 138
1.3000 1.1224 0.0000 144 233 138
1.4000 1.1224 3.0300 144 233 138
1.4000 1.1224 0.0000 144 233 138
1.5000 1.1224 3.0300 144 233 138
1.5000 1.1224 0.0000 144 233 138
1.6000 1.1224 3.0300 144 233 138
1.6000 1.1224 0.0000 144 233 138
1.7000 1.1224 3.0300 144 233 138
1.7000 1.1224 0.0000 144 233 138
1.8000 1.1224 3.0300 144 233 138
1.8000 1.1224 0.0000 144 233 138
1.9000 1.1224 3.0300 144 233 138
1.9000 1.1224 0.0000 144 233 138
2.0000 1.1224 3.0300 144 233 138
2.0000 1.1224 0.0000 144 233 138
2.1000 1.1224 3.0300 144 233 138
2.1000 1.1224 0.0000 144 233 138
2.2000 1.1224 3.0300 144 233 138
2.2000 1.1224 0.0000 144 233 138
2.3000 1.1224 3.0300 144 233 138
2.3000 1.1224 0.0000 144 233 138
2.4000 1.1224 3.0300 144 233 138
2.4000 1.1224 0.0000 144 233 138
2.5000 1.1224 3.0300 144 233 138
2.5000 1.1224 0.0000 144 233 138
2.6000 1.1224 3.0300 144 233 138
2.6000 1.1224 0.0000 144 233 138
2.6300 1.1224 0.0000 144 233 138
0.0000 1.1224 0.0000 144 233 138
2.6300 1.1224 0.1000 144 233 138
0.0000 1.1224 0.1000 144 233 138
2.6300 1.1224 0.2000 144 233 138
0.0000 1.1224 0.2000 144 233 138
2.6300 1.1224 0.3000 144 233 138
0.0000 1.1224 0.3000 144 233 138
2.6300 1.1224 0.4000 144 233 138
0.0000 1.1224 0.4000 144 233 138
2.6300 1.1224 0.5000 144 233 138
0.0000 1.1224 0.5000 144 233 138
2.6300 1.1224 0.6000 144 233 138
0.0000 1.1224 0.6000 144 233 138
2.6300 1.1224 0.7000 144 233 138
0.0000 1.1224 0.7000 144 233 138
2.6300 1.1224 0.8000 144 233 138
0.0000 1.1224 0.8000 144 233 138
2.6300 1.1224 0.9000 144 233 138
0.0000 1.1224 0.9000 144 233 138
2.6300 1.1224 1.0000 144 233 138
0.0000 1.1224 1.0000 144 233 138
2.6300 1.1224 1.1000 144 233 138
0.0000 1.1224 1.1000 144 233 138
2.6300 1.1224 1.2000 144 233 138
0.0000 1.1224 1.2000 144 233 138
2.6300 1.1224 1.3000 144 233 138
0.0000 1.1224 1.3000 144 233 138
2.6300 1.1224 1.4000 144 233 138
0.0000 1.1224 1.4000 144 233 138
2.6300 1.1224 1.5000 144 233 138
0.0000 1.1224 1.5000 144 233 138
2.6300 1.1224 1.6000 144 233 138
0.0000 1.1224 1.6000 144 233 138
2.6300 1.1224 1.7000 144 233 138
0.0000 1.1224 1.7000 144 233 138
2.6300 1.1224 1.8000 144 233 138
0.0000 1.1224 1.8000 144 233 138
2.6300 1.1224 1.9000 144 233 138
0.0000 1.1224 1.9000 144 233 138
2.6300 1.1224 2.0000 144 233 138
0.0000 1.1224 2.0000 144 233 138
2.6300 1.1224 2.1000 144 233 138
0.0000 1.1224 2.1000 144 233 138
2.6300 1.1224 2.2000 144 233 138
0.0000 1.1224 2.2000 144 233 138
2.6300 1.1224 2.3000 144 233 138
0.0000 1.1224 2.3000 144 233 138
2.6300 1.1224 2.4000 144 233 138
0.0000 1.1224 2.4000 144 233 138
2.6300 1.1224 2.5000 144 233 138
0.0000 1.1224 2.5000 144 233 138
2.6300 1.1224 2.6000 144 233 138
0.0000 1.1224 2.6000 144 233 138
2.6300 1.1224 2.7000 144 233 138
0.0000 1.1224 2.7000 144 233 138
2.6300 1.1224 2.8000 144 233 138
0.0000 1.1224 2.8000 144 233 138
2.6300 1.1224 2.9000 144 233 138
0.0000 1.1224 2.9000 144 233 138
2.6300 1.1224 3.0000 144 233 138
0.0000 1.1224 3.0000 144 233 138
0.0000 1.2171 3.0300 135 210 149
0.0000 1.2171 0.0000 135 210 149
0.1000 1.2171 3.0300 135 210 149
0.1000 1.2171 0.0000 135 210 149
0.2000 1.2171 3.0300 135 210 149
0.2000 1.2171 0.0000 135 210 149
0.3000 1.2171 3.0300 135 210 149
0.3000 1.2171 0.0000 135 210 149
0.4000 1.2171 3.0300 135 210 149
0.4000 1.2171 0.0000 135 210 149
0.5000 1.2171 3.0300 135 210 149
0.5000 1.2171 0.0000 135 210 149
0.6000 1.2171 3.0300 135 210 149
0.6000 1.2171 0.0000 135 210 149
0.7000 1.2171 3.0300 135 210 149
0.7000 1.2171 0.0000 135 210 149
0.8000 1.2171 3.0300 135 210 149
0.8000 1.2171 0.0000 135 210 149
0.9000 1.2171 3.0300 135 210 149
0.9000 1.2171 0.0000 135 210 149
1.0000 1.2171 3.0300 135 210 149
1.0000 1.2171 0.0000 135 210 149
1.1000 1.2171 3.0300 135 210 149
1.1000 1.2171 0.0000 135 210 149
1.2000 1.2171 3.0300 135 210 149
1.2000 1.2171 0.0000 135 210 149
1.3000 1.2171 3.0300 135 210 149
1.3000 1.2171 0.0000 135 210 149
1.4000 1.2171 3.0300 135 210 149
1.4000 1.2171 0.0000 135 210 149
1.5000 1.2171 3.0300 135 210 149
1.5000 1.2171 0.0000 135 210 149
1.6000 1.2171 3.0300 135 210 149
1.6000 1.2171 0.0000 135 210 149
1.7000 1.2171 3.0300 135 210 149
1.7000 1.2171 0.0000 135 210 149
1.8000 1.2171 3.0300 135 210 149
1.8000 1.2171 0.0000 135 210 149
1.9000 1.2171 3.0300 135 210 149
1.9000 1.2171 0.0000 135 210 149
2.0000 1.2171 3.0300 135 210 149
2.0000 1.2171 0.0000 135 210 149
2.1000 1.2171 3.0300 135 210 149
2.1000 1.2171 0.0000 135 210 149
2.2000 1.2171 3.0300 135 210 149
2.2000 1.2171 0.0000 135 210 149
2.3000 1.2171 3.0300 135 210 149
2.3000 1.2171 0.0000 135 210 149
2.4000 1.2171 3.0300 135 210 149
2.4000 1.2171 0.0000 135 210 149
2.5000 1.2171 3.0300 135 210 149
2.5000 1.2171 0.0000 135 210 149
2.6000 1.2171 3.0300 135 210 149
2.6000 1.2171 0.0000 135 210 149
2.6300 1.2171 0.0000 135 210 149
0.0000 1.2171 0.0000 135 210 149
2.6300 1.2171 0.1000 135 210 149
0.0000 1.2171 0.1000 135 210 149
2.6300 1.2171 0.2000 135 210 149
0.0000 1.2171 0.2000 135 210 149
2.6300 1.2171 0.3000 135 210 149
0.0000 1.2171 0.3000 135 210 149
2.6300 1.2171 0.4000 135 210 149
0.0000 1.2171 0.4000 135 210 149
2.6300 1.2171 0.5000 135 210 149
0.0000 1.2171 0.5000 135 210 149
2.6300 1.2171 0.6000 135 210 149
0.0000 1.2171 0.6000 135 210 149
2.6300 1.2171 0.7000 135 210 149
0.0000 1.2171 0.7000 135 210 149
2.6300 1.2171 0.8000 135 210 149
0.0000 1.2171 0.8000 135 210 149
2.6300 1.2171 0.9000 135 210 149
0.0000 1.2171 0.9000 135 210 149
2.6300 1.2171 1.0000 135 210 149
0.0000 1.2171 1.0000 135 210 149
2.6300 1.2171 1.1000 135 210 149
0.0000 1.2171 1.1000 135 210 149
2.6300 1.2171 1.2000 135 210 149
0.0000 1.2171 1.2000 135 210 149
2.6300 1.2171 1.3000 135 210 149
0.0000 1.2171 1.3000 135 210 149
2.6300 1.2171 1.4000 135 210 149
0.0000 1.2171 1.4000 135 210 149
2.6300 1.2171 1.5000 135 210 149
0.0000 1.2171 1.5000 135 210 149
2.6300 1.2171 1.6000 135 210 149
0.0000 1.2171 1.6000 135 210 149
2.6300 1.2171 1.7000 135 210 149
0.0000 1.2171 1.7000 135 210 149
2.6300 1.2171 1.8000 135 210 149
0.0000 1.2171 1.8000 135 210 149
2.6300 1.2171 1.9000 135 210 149
0.0000 1.2171 1.9000 135 210 149
2.6300 1.2171 2.0000 135 210 149
0.0000 1.2171 2.0000 135 210 149
2.6300 1.2171 2.1000 135 210 149
0.0000 1.2171 2.1000 135 210 149
2.6300 1.2171 2.2000 135 210 149
0.0000 1.2171 2.2000 135 210 149
2.6300 1.2171 2.3000 135 210 149
0.0000 1.2171 2.3000 135 210 149
2.6300 1.2171 2.4000 135 210 149
0.0000 1.2171 2.4000 135 210 149
2.6300 1.2171 2.5000 135 210 149
0.0000 1.2171 2.5000 135 210 149
2.6300 1.2171 2.6000 135 210 149
0.0000 1.2171 2.6000 135 210 149
2.6300 1.2171 2.7000 135 210 149
0.0000 1.2171 2.7000 135 210 149
2.6300 1.2171 2.8000 135 210 149
0.0000 1.2171 2.8000 135 210 149
2.6300 1.2171 2.9000 135 210 149
0.0000 1.2171 2.9000 135 210 149
2.6300 1.2171 3.0000 135 210 149
0.0000 1.2171 3.0000 135 210 149
0.0000 1.3119 3.0300 125 186 161
0.0000 1.3119 0.0000 125 186 161
0.1000 1.3119 3.0300 125 186 161
0.1000 1.3119 0.0000 125 186 161
0.2000 1.3119 3.0300 125 186 161
0.2000 1.3119 0.0000 125 186 161
0.3000 1.3119 3.0300 125 186 161
0.3000 1.3119 0.0000 125 186 161
0.4000 1.3119 3.0300 125 186 161
0.4000 1.3119 0.0000 125 186 161
0.5000 1.3119 3.0300 125 186 161
0.5000 1.3119 0.0000 125 186 161
0.6000 1.3119 3.0300 125 186 161
0.6000 1.3119 0.0000 125 186 161
0.7000 1.3119 3.0300 125 186 161
0.7000 1.3119 0.0000 125 186 161
0.8000 1.3119 3.0300 125 186 161
0.8000 1.3119 0.0000 125 186 161
0.9000 1.3119 3.0300 125 186 161
0.9000 1.3119 0.0000 125 186 161
1.0000 1.3119 3.0300 125 186 161
1.0000 1.3119 0.0000 125 186 161
1.1000 1.3119 3.0300 125 186 161
1.1000 1.3119 0.0000 125 186 161
1.2000 1.3119 3.0300 125 186 161
1.2000 1.3119 0.0000 125 186 161
1.3000 1.3119 3.0300 125 186 161
1.3000 1.3119 0.0000 125 186 161
1.4000 1.3119 3.0300 125 186 161
1.4000 1.3119 0.0000 125 186 161
1.5000 1.3119 3.0300 125 186 161
1.5000 1.3119 0.0000 125 186 161
1.6000 1.3119 3.0300 125 186 161
1.6000 1.3119 0.0000 125 186 161
1.7000 1.3119 3.0300 125 186 161
1.7000 1.3119 0.0000 125 186 161
1.8000 1.3119 3.0300 125 186 161
1.8000 1.3119 0.0000 125 186 161
1.9000 1.3119 3.0300 125 186 161
1.9000 1.3119 0.0000 125 186 161
2.0000 1.3119 3.0300 125 186 161
2.0000 1.3119 0.0000 125 186 161
2.1000 1.3119 3.0300 125 186 161
2.1000 1.3119 0.0000 125 186 161
2.2000 1.3119 3.0300 125 186 161
2.2000 1.3119 0.0000 125 186 161
2.3000 1.3119 3.0300 125 186 161
2.3000 1.3119 0.0000 125 186 161
2.4000 1.3119 3.0300 125 186 161
2.4000 1.3119 0.0000 125 186 161
2.5000 1.3119 3.0300 125 186 161
2.5000 1.3119 0.0000 125 186 161
2.6000 1.3119 3.0300 125 186 161
2.6000 1.3119 0.0000 125 186 161
2.6300 1.3119 0.0000 125 186 161
0.0000 1.3119 0.0000 125 186 161
2.6300 1.3119 0.1000 125 186 161
0.0000 1.3119 0.1000 125 186 161
2.6300 1.3119 0.2000 125 186 161
0.0000 1.3119 0.2000 125 186 161
2.6300 1.3119 0.3000 125 186 161
0.0000 1.3119 0.3000 125 186 161
2.6300 1.3119 0.4000 125 186 161
0.0000 1.3119 0.4000 125 186 161
2.6300 1.3119 0.5000 125 186 161
0.0000 1.3119 0.5000 125 186 161
2.6300 1.3119 0.6000 125 186 161
0.0000 1.3119 0.6000 125 186 161
2.6300 1.3119 0.7000 125 186 161
0.0000 1.3119 0.7000 125 186 161
2.6300 1.3119 0.8000 125 186 161
0.0000 1.3119 0.8000 125 186 161
2.6300 1.3119 0.9000 125 186 161
0.0000 1.3119 0.9000 125 186 161
2.6300 1.3119 1.0000 125 186 161
0.0000 1.3119 1.0000 125 186 161
2.6300 1.3119 1.1000 125 186 161
0.0000 1.3119 1.1000 125 186 161
2.6300 1.3119 1.2000 125 186 161
0.0000 1.3119 1.2000 125 186 161
2.6300 1.3119 1.3000 125 186 161
0.0000 1.3119 1.3000 125 186 161
2.6300 1.3119 1.4000 125 186 161
0.0000 1.3119 1.4000 125 186 161
2.6300 1.3119 1.5000 125 186 161
0.0000 1.3119 1.5000 125 186 161
2.6300 1.3119 1.6000 125 186 161
0.0000 1.3119 1.6000 125 186 161
2.6300 1.3119 1.7000 125 186 161
0.0000 1.3119 1.7000 125 186 161
2.6300 1.3119 1.8000 125 186 161
0.0000 1.3119 1.8000 125 186 161
2.6300 1.3119 1.9000 125 186 161
0.0000 1.3119 1.9000 125 186 161
2.6300 1.3119 2.0000 125 186 161
0.0000 1.3119 2.0000 125 186 161
2.6300 1.3119 2.1000 125 186 161
0.0000 1.3119 2.1000 125 186 161
2.6300 1.3119 2.2000 125 186 161
0.0000 1.3119 2.2000 125 186 161
2.6300 1.3119 2.3000 125 186 161
0.0000 1.3119 2.3000 125 186 161
2.6300 1.3119 2.4000 125 186 161
0.0000 1.3119 2.4000 125 186 161
2.6300 1.3119 2.5000 125 186 161
0.0000 1.3119 2.5000 125 186 161
2.6300 1.3119 2.6000 125 186 161
0.0000 1.3119 2.6000 125 186 161
2.6300 1.3119 2.7000 125 186 161
0.0000 1.3119 2.7000 125 186 161
2.6300 1.3119 2.8000 125 186 161
0.0000 1.3119 2.8000 125 186 161
2.6300 1.3119 2.9000 125 186 161
0.0000 1.3119 2.9000 125 186 161
2.6300 1.3119 3.0000 125 186 161
0.0000 1.3119 3.0000 125 186 161
0.0000 1.4067 3.0300 116 163 173
0.0000 1.4067 0.0000 116 163 173
0.1000 1.4067 3.0300 116 163 173
0.1000 1.4067 0.0000 116 163 173
0.2000 1.4067 3.0300 116 163 173
0.2000 1.4067 0.0000 116 163 173
0.3000 1.4067 3.0300 116 163 173
0.3000 1.4067 0.0000 116 163 173
0.4000 1.4067 3.0300 116 163 173
0.4000 1.4067 0.0000 116 163 173
0.5000 1.4067 3.0300 116 163 173
0.5000 1.4067 0.0000 116 163 173
0.6000 1.4067 3.0300 116 163 173
0.6000 1.4067 0.0000 116 163 173
0.7000 1.4067 3.0300 116 163 173
0.7000 1.4067 0.0000 116 163 173
0.8000 1.4067 3.0300 116 163 173
0.8000 1.4067 0.0000 116 163 173
0.9000 1.4067 3.0300 116 163 173
0.9000 1.4067 0.0000 116 163 173
1.0000 1.4067 3.0300 116 163 173
1.0000 1.4067 0.0000 116 163 173
1.1000 1.4067 3.0300 116 163 173
1.1000 1.4067 0.0000 116 163 173
1.2000 1.4067 3.0300 116 163 173
1.2000 1.4067 0.0000 116 163 173
1.3000 1.4067 3.0300 116 163 173
1.3000 1.4067 0.0000 116 163 173
1.4000 1.4067 3.0300 116 163 173
1.4000 1.4067 0.0000 116 163 173
1.5000 1.4067 3.0300 116 163 173
1.5000 1.4067 0.0000 116 163 173
1.6000 1.4067 3.0300 116 163 173
1.6000 1.4067 0.0000 116 163 173
1.7000 1.4067 3.0300 116 163 173
1.7000 1.4067 0.0000 116 163 173
1.8000 1.4067 3.0300 116 163 173
1.8000 1.4067 0.0000 116 163 173
1.9000 1.4067 3.0300 116 163 173
1.9000 1.4067 0.0000 116 163 173
2.0000 1.4067 3.0300 116 163 173
2.0000 1.4067 0.0000 116 163 173
2.1000 1.4067 3.0300 116 163 173
2.1000 1.4067 0.0000 116 163 173
2.2000 1.4067 3.0300 116 163 173
2.2000 1.4067 0.0000 116 163 173
2.3000 1.4067 3.0300 116 163 173
2.3000 1.4067 0.0000 116 163 173
2.4000 1.4067 3.0300 116 163 173
2.4000 1.4067 0.0000 116 163 173
2.5000 1.4067 3.0300 116 163 173
2.5000 1.4067 0.0000 116 163 173
2.6000 1.4067 3.0300 116 163 173
2.6000 1.4067 0.0000 116 163 173
2.6300 1.4067 0.0000 116 163 173
0.0000 1.4067 0.0000 116 163 173
2.6300 1.4067 0.1000 116 163 173
0.0000 1.4067 0.1000 116 163 173
2.6300 1.4067 0.2000 116 163 173
0.0000 1.4067 0.2000 116 163 173
2.6300 1.4067 0.3000 116 163 173
0.0000 1.4067 0.3000 116 163 173
2.6300 1.4067 0.4000 116 163 173
0.0000 1.4067 0.4000 116 163 173
2.6300 1.4067 0.5000 116 163 173
0.0000 1.4067 0.5000 116 163 173
2.6300 1.4067 0.6000 116 163 173
0.0000 1.4067 0.6000 116 163 173
2.6300 1.4067 0.7000 116 163 173
0.0000 1.4067 0.7000 116 163 173
2.6300 1.4067 0.8000 116 163 173
0.0000 1.4067 0.8000 116 163 173
2.6300 1.4067 0.9000 116 163 173
0.0000 1.4067 0.9000 116 163 173
2.6300 1.4067 1.0000 116 163 173
0.0000 1.4067 1.0000 116 163 173
2.6300 1.4067 1.1000 116 163 173
0.0000 1.4067 1.1000 116 163 173
2.6300 1.4067 1.2000 116 163 173
0.0000 1.4067 1.2000 116 163 173
2.6300 1.4067 1.3000 116 163 173
0.0000 1.4067 1.3000 116 163 173
2.6300 1.4067 1.4000 116 163 173
0.0000 1.4067 1.4000 116 163 173
2.6300 1.4067 1.5000 116 163 173
0.0000 1.4067 1.5000 116 163 173
2.6300 1.4067 1.6000 116 163 173
0.0000 1.4067 1.6000 116 163 173
2.6300 1.4067 1.7000 116 163 173
0.0000 1.4067 1.7000 116 163 173
2.6300 1.4067 1.8000 116 163 173
0.0000 1.4067 1.8000 116 163 173
2.6300 1.4067 1.9000 116 163 173
0.0000 1.4067 1.9000 116 163 173
2.6300 1.4067 2.0000 116 163 173
0.0000 1.4067 2.0000 116 163 173
2.6300 1.4067 2.1000 116 163 173
0.0000 1.4067 2.1000 116 163 173
2.6300 1.4067 2.2000 116 163 173
0.0000 1.4067 2.2000 116 163 173
2.6300 1.4067 2.3000 116 163 173
0.0000 1.4067 2.3000 116 163 173
2.6300 1.4067 2.4000 116 163 173
0.0000 1.4067 2.4000 116 163 173
2.6300 1.4067 2.5000 116 163 173
0.0000 1.4067 2.5000 116 163 173
2.6300 1.4067 2.6000 116 163 173
0.0000 1.4067 2.6000 116 163 173
2.6300 1.4067 2.7000 116 163 173
0.0000 1.4067 2.7000 116 163 173
2.6300 1.4067 2.8000 116 163 173
0.0000 1.4067 2.8000 116 163 173
2.6300 1.4067 2.9000 116 163 173
0.0000 1.4067 2.9000 116 163 173
2.6300 1.4067 3.0000 116 163 173
0.0000 1.4067 3.0000 116 163 173
0.0000 1.5014 3.0300 107 140 184
0.0000 1.5014 0.0000 107 140 184
0.1000 1.5014 3.0300 107 140 184
0.1000 1.5014 0.0000 107 140 184
0.2000 1.5014 3.0300 107 140 184
0.2000 1.5014 0.0000 107 140 184
0.3000 1.5014 3.0300 107 140 184
0.3000 1.5014 0.0000 107 140 184
0.4000 1.5014 3.0300 107 140 184
0.4000 1.5014 0.0000 107 140 184
0.5000 1.5014 3.0300 107 140 184
0.5000 1.5014 0.0000 107 140 184
0.6000 1.5014 3.0300 107 140 184
0.6000 1.5014 0.0000 107 140 184
0.7000 1.5014 3.0300 107 140 184
0.7000 1.5014 0.0000 107 140 184
0.8000 1.5014 3.0300 107 140 184
0.8000 1.5014 0.0000 107 140 184
0.9000 1.5014 3.0300 107 140 184
0.9000 1.5014 0.0000 107 140 184
1.0000 1.5014 3.0300 107 140 184
1.0000 1.5014 0.0000 107 140 184
1.1000 1.5014 3.0300 107 140 184
1.1000 1.5014 0.0000 107 140 184
1.2000 1.5014 3.0300 107 140 184
1.2000 1.5014 0.0000 107 140 184
1.3000 1.5014 3.0300 107 140 184
1.3000 1.5014 0.0000 107 140 184
1.4000 1.5014 3.0300 107 140 184
1.4000 1.5014 0.0000 107 140 184
1.5000 1.5014 3.0300 107 140 184
1.5000 1.5014 0.0000 107 140 184
1.6000 1.5014 3.0300 107 140 184
1.6000 1.5014 0.0000 107 140 184
1.7000 1.5014 3.0300 107 140 184
1.7000 1.5014 0.0000 107 140 184
1.8000 1.5014 3.0300 107 140 184
1.8000 1.5014 0.0000 107 140 184
1.9000 1.5014 3.0300 107 140 184
1.9000 1.5014 0.0000 107 140 184
2.0000 1.5014 3.0300 107 140 184
2.0000 1.5014 0.0000 107 140 184
2.1000 1.5014 3.0300 107 140 184
2.1000 1.5014 0.0000 107 140 184
2.2000 1.5014 3.0300 107 140 184
2.2000 1.5014 0.0000 107 140 184
2.3000 1.5014 3.0300 107 140 184
2.3000 1.5014 0.0000 107 140 184
2.4000 1.5014 3.0300 107 140 184
2.4000 1.5014 0.0000 107 140 184
2.5000 1.5014 3.0300 107 140 184
2.5000 1.5014 0.0000 107 140 184
2.6000 1.5014 3.0300 107 140 184
2.6000 1.5014 0.0000 107 140 184
2.6300 1.5014 0.0000 107 140 184
0.0000 1.5014 0.0000 107 140 184
2.6300 1.5014 0.1000 107 140 184
0.0000 1.5014 0.1000 107 140 184
2.6300 1.5014 0.2000 107 140 184
0.0000 1.5014 0.2000 107 140 184
2.6300 1.5014 0.3000 107 140 184
0.0000 1.5014 0.3000 107 140 184
2.6300 1.5014 0.4000 107 140 184
0.0000 1.5014 0.4000 107 140 184
2.6300 1.5014 0.5000 107 140 184
0.0000 1.5014 0.5000 107 140 184
2.6300 1.5014 0.6000 107 140 184
0.0000 1.5014 0.6000 107 140 184
2.6300 1.5014 0.7000 107 140 184
0.0000 1.5014 0.7000 107 140 184
2.6300 1.5014 0.8000 107 140 184
0.0000 1.5014 0.8000 107 140 184
2.6300 1.5014 0.9000 107 140 184
0.0000 1.5014 0.9000 107 140 184
2.6300 1.5014 1.0000 107 140 184
0.0000 1.5014 1.0000 107 140 184
2.6300 1.5014 1.1000 107 140 184
0.0000 1.5014 1.1000 107 140 184
2.6300 1.5014 1.2000 107 140 184
0.0000 1.5014 1.2000 107 140 184
2.6300 1.5014 1.3000 107 140 184
0.0000 1.5014 1.3000 107 140 184
2.6300 1.5014 1.4000 107 140 184
0.0000 1.5014 1.4000 107 140 184
2.6300 1.5014 1.5000 107 140 184
0.0000 1.5014 1.5000 107 140 184
2.6300 1.5014 1.6000 107 140 184
0.0000 1.5014 1.6000 107 140 184
2.6300 1.5014 1.7000 107 140 184
0.0000 1.5014 1.7000 107 140 184
2.6300 1.5014 1.8000 107 140 184
0.0000 1.5014 1.8000 107 140 184
2.6300 1.5014 1.9000 107 140 184
0.0000 1.5014 1.9000 107 140 184
2.6300 1.5014 2.0000 107 140 184
0.0000 1.5014 2.0000 107 140 184
2.6300 1.5014 2.1000 107 140 184
0.0000 1.5014 2.1000 107 140 184
2.6300 1.5014 2.2000 107 140 184
0.0000 1.5014 2.2000 107 140 184
2.6300 1.5014 2.3000 107 140 184
0.0000 1.5014 2.3000 107 140 184
2.6300 1.5014 2.4000 107 140 184
0.0000 1.5014 2.4000 107 140 184
2.6300 1.5014 2.5000 107 140 184
0.0000 1.5014 2.5000 107 140 184
2.6300 1.5014 2.6000 107 140 184
0.0000 1.5014 2.6000 107 140 184
2.6300 1.5014 2.7000 107 140 184
0.0000 1.5014 2.7000 107 140 184
2.6300 1.5014 2.8000 107 140 184
0.0000 1.5014 2.8000 107 140 184
2.6300 1.5014 2.9000 107 140 184
0.0000 1.5014 2.9000 107 140 184
2.6300 1.5014 3.0000 107 140 184
0.0000 1.5014 3.0000 107 140 184
0.0000 1.5962 3.0300 97 116 196
0.0000 1.5962 0.0000 97 116 196
0.1000 1.5962 3.0300 97 116 196
0.1000 1.5962 0.0000 97 116 196
0.2000 1.5962 3.0300 97 116 196
0.2000 1.5962 0.0000 97 116 196
0.3000 1.5962 3.0300 97 116 196
0.3000 1.5962 0.0000 97 116 196
0.4000 1.5962 3.0300 97 116 196
0.4000 1.5962 0.0000 97 116 196
0.5000 1.5962 3.0300 97 116 196
0.5000 1.5962 0.0000 97 116 196
0.6000 1.5962 3.0300 97 116 196
0.6000 1.5962 0.0000 97 116 196
0.7000 1.5962 3.0300 97 116 196
0.7000 1.5962 0.0000 97 116 196
0.8000 1.5962 3.0300 97 116 196
0.8000 1.5962 0.0000 97 116 196
0.9000 1.5962 3.0300 97 116 196
0.9000 1.5962 0.0000 97 116 196
1.0000 1.5962 3.0300 97 116 196
1.0000 1.5962 0.0000 97 116 196
1.1000 1.5962 3.0300 97 116 196
1.1000 1.5962 0.0000 97 116 196
1.2000 1.5962 3.0300 97 116 196
1.2000 1.5962 0.0000 97 116 196
1.3000 1.5962 3.0300 97 116 196
1.3000 1.5962 0.0000 97 116 196
1.4000 1.5962 3.0300 97 116 196
1.4000 1.5962 0.0000 97 116 196
1.5000 1.5962 3.0300 97 116 196
1.5000 1.5962 0.0000 97 116 196
1.6000 1.5962 3.0300 97 116 196
1.6000 1.5962 0.0000 97 116 196
1.7000 1.5962 3.0300 97 116 196
1.7000 1.5962 0.0000 97 116 196
1.8000 1.5962 3.0300 97 116 196
1.8000 1.5962 0.0000 97 116 196
1.9000 1.5962 3.0300 97 116 196
1.9000 1.5962 0.0000 97 116 196
2.0000 1.5962 3.0300 97 116 196
2.0000 1.5962 0.0000 97 116 196
2.1000 1.5962 3.0300 97 116 196
2.1000 1.5962 0.0000 97 116 196
2.2000 1.5962 3.0300 97 116 196
2.2000 1.5962 0.0000 97 116 196
2.3000 1.5962 3.0300 97 116 196
2.3000 1.5962 0.0000 97 116 196
2.4000 1.5962 3.0300 97 116 196
2.4000 1.5962 0.0000 97 116 196
2.5000 1.5962 3.0300 97 116 196
2.5000 1.5962 0.0000 97 116 196
2.6000 1.5962 3.0300 97 116 196
2.6000 1.5962 0.0000 97 116 196
2.6300 1.5962 0.0000 97 116 196
0.0000 1.5962 0.0000 97 116 196
2.6300 1.5962 0.1000 97 116 196
0.0000 1.5962 0.1000 97 116 196
2.6300 1.5962 0.2000 97 116 196
0.0000 1.5962 0.2000 97 116 196
2.6300 1.5962 0.3000 97 116 196
0.0000 1.5962 0.3000 97 116 196
2.6300 1.5962 0.4000 97 116 196
0.0000 1.5962 0.4000 97 116 196
2.6300 1.5962 0.5000 97 116 196
0.0000 1.5962 0.5000 97 116 196
2.6300 1.5962 0.6000 97 116 196
0.0000 1.5962 0.6000 97 116 196
2.6300 1.5962 0.7000 97 116 196
0.0000 1.5962 0.7000 97 116 196
2.6300 1.5962 0.8000 97 116 196
0.0000 1.5962 0.8000 97 116 196
2.6300 1.5962 0.9000 97 116 196
0.0000 1.5962 0.9000 97 116 196
2.6300 1.5962 1.0000 97 116 196
0.0000 1.5962 1.0000 97 116 196
2.6300 1.5962 1.1000 97 116 196
0.0000 1.5962 1.1000 97 116 196
2.6300 1.5962 1.2000 97 116 196
0.0000 1.5962 1.2000 97 116 196
2.6300 1.5962 1.3000 97 116 196
0.0000 1.5962 1.3000 97 116 196
2.6300 1.5962 1.4000 97 116 196
0.0000 1.5962 1.4000 97 116 196
2.6300 1.5962 1.5000 97 116 196
0.0000 1.5962 1.5000 97 116 196
2.6300 1.5962 1.6000 97 116 196
0.0000 1.5962 1.6000 97 116 196
2.6300 1.5962 1.7000 97 116 196
0.0000 1.5962 1.7000 97 116 196
2.6300 1.5962 1.8000 97 116 196
0.0000 1.5962 1.8000 97 116 196
2.6300 1.5962 1.9000 97 116 196
0.0000 1.5962 1.9000 97 116 196
2.6300 1.5962 2.0000 97 116 196
0.0000 1.5962 2.0000 97 116 196
2.6300 1.5962 2.1000 97 116 196
0.0000 1.5962 2.1000 97 116 196
2.6300 1.5962 2.2000 97 116 196
0.0000 1.5962 2.2000 97 116 196
2.6300 1.5962 2.3000 97 116 196
0.0000 1.5962 2.3000 97 116 196
2.6300 1.5962 2.4000 97 116 196
0.0000 1.5962 2.4000 97 116 196
2.6300 1.5962 2.5000 97 116 196
0.0000 1.5962 2.5000 97 116 196
2.6300 1.5962 2.6000 97 116 196
0.0000 1.5962 2.6000 97 116 196
2.6300 1.5962 2.7000 97 116 196
0.0000 1.5962 2.7000 97 116 196
2.6300 1.5962 2.8000 97 116 196
0.0000 1.5962 2.8000 97 116 196
2.6300 1.5962 2.9000 97 116 196
0.0000 1.5962 2.9000 97 116 196
2.6300 1.5962 3.0000 97 116 196
0.0000 1.5962 3.0000 97 116 196
0.0000 1.6910 3.0300 88 93 208
0.0000 1.6910 0.0000 88 93 208
0.1000 1.6910 3.0300 88 93 208
0.1000 1.6910 0.0000 88 93 208
0.2000 1.6910 3.0300 88 93 208
0.2000 1.6910 0.0000 88 93 208
0.3000 1.6910 3.0300 88 93 208
0.3000 1.6910 0.0000 88 93 208
0.4000 1.6910 3.0300 88 93 208
0.4000 1.6910 0.0000 88 93 208
0.5000 1.6910 3.0300 88 93 208
0.5000 1.6910 0.0000 88 93 208
0.6000 1.6910 3.0300 88 93 208
0.6000 1.6910 0.0000 88 93 208
0.7000 1.6910 3.0300 88 93 208
0.7000 1.6910 0.0000 88 93 208
0.8000 1.6910 3.0300 88 93 208
0.8000 1.6910 0.0000 88 93 208
0.9000 1.6910 3.0300 88 93 208
0.9000 1.6910 0.0000 88 93 208
1.0000 1.6910 3.0300 88 93 208
1.0000 1.6910 0.0000 88 93 208
1.1000 1.6910 3.0300 88 93 208
1.1000 1.6910 0.0000 88 93 208
1.2000 1.6910 3.0300 88 93 208
1.2000 1.6910 0.0000 88 93 208
1.3000 1.6910 3.0300 88 93 208
1.3000 1.6910 0.0000 88 93 208
1.4000 1.6910 3.0300 88 93 208
1.4000 1.6910 0.0000 88 93 208
1.5000 1.6910 3.0300 88 93 208
1.5000 1.6910 0.0000 88 93 208
1.6000 1.6910 3.0300 88 93 208
1.6000 1.6910 0.0000 88 93 208
1.7000 1.6910 3.0300 88 93 208
1.7000 1.6910 0.0000 88 93 208
1.8000 1.6910 3.0300 88 93 208
1.8000 1.6910 0.0000 88 93 208
1.9000 1.6910 3.0300 88 93 208
1.9000 1.6910 0.0000 88 93 208
2.0000 1.6910 3.0300 88 93 208
2.0000 1.6910 0.0000 88 93 208
2.1000 1.6910 3.0300 88 93 208
2.1000 1.6910 0.0000 88 93 208
2.2000 1.6910 3.0300 88 93 208
2.2000 1.6910 0.0000 88 93 208
2.3000 1.6910 3.0300 88 93 208
2.3000 1.6910 0.0000 88 93 208
2.4000 1.6910 3.0300 88 93 208
2.4000 1.6910 0.0000 88 93 208
2.5000 1.6910 3.0300 88 93 208
2.5000 1.6910 0.0000 88 93 208
2.6000 1.6910 3.0300 88 93 208
2.6000 1.6910 0.0000 88 93 208
2.6300 1.6910 0.0000 88 93 208
0.0000 1.6910 0.0000 88 93 208
2.6300 1.6910 0.1000 88 93 208
0.0000 1.6910 0.1000 88 93 208
2.6300 1.6910 0.2000 88 93 208
0.0000 1.6910 0.2000 88 93 208
2.6300 1.6910 0.3000 88 93 208
0.0000 1.6910 0.3000 88 93 208
2.6300 1.6910 0.4000 88 93 208
0.0000 1.6910 0.4000 88 93 208
2.6300 1.6910 0.5000 88 93 208
0.0000 1.6910 0.5000 88 93 208
2.6300 1.6910 0.6000 88 93 208
0.0000 1.6910 0.6000 88 93 208
2.6300 1.6910 0.7000 88 93 208
0.0000 1.6910 0.7000 88 93 208
2.6300 1.6910 0.8000 88 93 208
0.0000 1.6910 0.8000 88 93 208
2.6300 1.6910 0.9000 88 93 208
0.0000 1.6910 0.9000 88 93 208
2.6300 1.6910 1.0000 88 93 208
0.0000 1.6910 1.0000 88 93 208
2.6300 1.6910 1.1000 88 93 208
0.0000 1.6910 1.1000 88 93 208
2.6300 1.6910 1.2000 88 93 208
0.0000 1.6910 1.2000 88 93 208
2.6300 1.6910 1.3000 88 93 208
0.0000 1.6910 1.3000 88 93 208
2.6300 1.6910 1.4000 88 93 208
0.0000 1.6910 1.4000 88 93 208
2.6300 1.6910 1.5000 88 93 208
0.0000 1.6910 1.5000 88 93 208
2.6300 1.6910 1.6000 88 93 208
0.0000 1.6910 1.6000 88 93 208
2.6300 1.6910 1.7000 88 93 208
0.0000 1.6910 1.7000 88 93 208
2.6300 1.6910 1.8000 88 93 208
0.0000 1.6910 1.8000 88 93 208
2.6300 1.6910 1.9000 88 93 208
0.0000 1.6910 1.9000 88 93 208
2.6300 1.6910 2.0000 88 93 208
0.0000 1.6910 2.0000 88 93 208
2.6300 1.6910 2.1000 88 93 208
0.0000 1.6910 2.1000 88 93 208
2.6300 1.6910 2.2000 88 93 208
0.0000 1.6910 2.2000 88 93 208
2.6300 1.6910 2.3000 88 93 208
0.0000 1.6910 2.3000 88 93 208
2.6300 1.6910 2.4000 88 93 208
0.0000 1.6910 2.4000 88 93 208
2.6300 1.6910 2.5000 88 93 208
0.0000 1.6910 2.5000 88 93 208
2.6300 1.6910 2.6000 88 93 208
0.0000 1.6910 2.6000 88 93 208
2.6300 1.6910 2.7000 88 93 208
0.0000 1.6910 2.7000 88 93 208
2.6300 1.6910 2.8000 88 93 208
0.0000 1.6910 2.8000 88 93 208
2.6300 1.6910 2.9000 88 93 208
0.0000 1.6910 2.9000 88 93 208
2.6300 1.6910 3.0000 88 93 208
0.0000 1.6910 3.0000 88 93 208
0.0000 1.7857 3.0300 79 70 219
0.0000 1.7857 0.0000 79 70 219
0.1000 1.7857 3.0300 79 70 219
0.1000 1.7857 0.0000 79 70 219
0.2000 1.7857 3.0300 79 70 219
0.2000 1.7857 0.0000 79 70 219
0.3000 1.7857 3.0300 79 70 219
0.3000 1.7857 0.0000 79 70 219
0.4000 1.7857 3.0300 79 70 219
0.4000 1.7857 0.0000 79 70 219
0.5000 1.7857 3.0300 79 70 219
0.5000 1.7857 0.0000 79 70 219
0.6000 1.7857 3.0300 79 70 219
0.6000 1.7857 0.0000 79 70 219
0.7000 1.7857 3.0300 79 70 219
0.7000 1.7857 0.0000 79 70 219
0.8000 1.7857 3.0300 79 70 219
0.8000 1.7857 0.0000 79 70 219
0.9000 1.7857 3.0300 79 70 219
0.9000 1.7857 0.0000 79 70 219
1.0000 1.7857 3.0300 79 70 219
1.0000 1.7857 0.0000 79 70 219
1.1000 1.7857 3.0300 79 70 219
1.1000 1.7857 0.0000 79 70 219
1.2000 1.7857 3.0300 79 70 219
1.2000 1.7857 0.0000 79 70 219
1.3000 1.7857 3.0300 79 70 219
1.3000 1.7857 0.0000 79 70 219
1.4000 1.7857 3.0300 79 70 219
1.4000 1.7857 0.0000 79 70 219
1.5000 1.7857 3.0300 79 70 219
1.5000 1.7857 0.0000 79 70 219
1.6000 1.7857 3.0300 79 70 219
1.6000 1.7857 0.0000 79 70 219
1.7000 1.7857 3.0300 79 70 219
1.7000 1.7857 0.0000 79 70 219
1.8000 1.7857 3.0300 79 70 219
1.8000 1.7857 0.0000 79 70 219
1.9000 1.7857 3.0300 79 70 219
1.9000 1.7857 0.0000 79 70 219
2.0000 1.7857 3.0300 79 70 219
2.0000 1.7857 0.0000 79 70 219
2.1000 1.7857 3.0300 79 70 219
2.1000 1.7857 0.0000 79 70 219
2.2000 1.7857 3.0300 79 70 219
2.2000 1.7857 0.0000 79 70 219
2.3000 1.7857 3.0300 79 70 219
2.3000 1.7857 0.0000 79 70 219
2.4000 1.7857 3.0300 79 70 219
2.4000 1.7857 0.0000 79 70 219
2.5000 1.7857 3.0300 79 70 219
2.5000 1.7857 0.0000 79 70 219
2.6000 1.7857 3.0300 79 70 219
2.6000 1.7857 0.0000 79 70 219
2.6300 1.7857 0.0000 79 70 219
0.0000 1.7857 0.0000 79 70 219
2.6300 1.7857 0.1000 79 70 219
0.0000 1.7857 0.1000 79 70 219
2.6300 1.7857 0.2000 79 70 219
0.0000 1.7857 0.2000 79 70 219
2.6300 1.7857 0.3000 79 70 219
0.0000 1.7857 0.3000 79 70 219
2.6300 1.7857 0.4000 79 70 219
0.0000 1.7857 0.4000 79 70 219
2.6300 1.7857 0.5000 79 70 219
0.0000 1.7857 0.5000 79 70 219
2.6300 1.7857 0.6000 79 70 219
0.0000 1.7857 0.6000 79 70 219
2.6300 1.7857 0.7000 79 70 219
0.0000 1.7857 0.7000 79 70 219
2.6300 1.7857 0.8000 79 70 219
0.0000 1.7857 0.8000 79 70 219
2.6300 1.7857 0.9000 79 70 219
0.0000 1.7857 0.9000 79 70 219
2.6300 1.7857 1.0000 79 70 219
0.0000 1.7857 1.0000 79 70 219
2.6300 1.7857 1.1000 79 70 219
0.0000 1.7857 1.1000 79 70 219
2.6300 1.7857 1.2000 79 70 219
0.0000 1.7857 1.2000 79 70 219
2.6300 1.7857 1.3000 79 70 219
0.0000 1.7857 1.3000 79 70 219
2.6300 1.7857 1.4000 79 70 219
0.0000 1.7857 1.4000 79 70 219
2.6300 1.7857 1.5000 79 70 219
0.0000 1.7857 1.5000 79 70 219
2.6300 1.7857 1.6000 79 70 219
0.0000 1.7857 1.6000 79 70 219
2.6300 1.7857 1.7000 79 70 219
0.0000 1.7857 1.7000 79 70 219
2.6300 1.7857 1.8000 79 70 219
0.0000 1.7857 1.8000 79 70 219
2.6300 1.7857 1.9000 79 70 219
0.0000 1.7857 1.9000 79 70 219
2.6300 1.7857 2.0000 79 70 219
0.0000 1.7857 2.0000 79 70 219
2.6300 1.7857 2.1000 79 70 219
0.0000 1.7857 2.1000 79 70 219
2.6300 1.7857 2.2000 79 70 219
0.0000 1.7857 2.2000 79 70 219
2.6300 1.7857 2.3000 79 70 219
0.0000 1.7857 2.3000 79 70 219
2.6300 1.7857 2.4000 79 70 219
0.0000 1.7857 2.4000 79 70 219
2.6300 1.7857 2.5000 79 70 219
0.0000 1.7857 2.5000 79 70 219
2.6300 1.7857 2.6000 79 70 219
0.0000 1.7857 2.6000 79 70 219
2.6300 1.7857 2.7000 79 70 219
0.0000 1.7857 2.7000 79 70 219
2.6300 1.7857 2.8000 79 70 219
0.0000 1.7857 2.8000 79 70 219
2.6300 1.7857 2.9000 79 70 219
0.0000 1.7857 2.9000 79 70 219
2.6300 1.7857 3.0000 79 70 219
0.0000 1.7857 3.0000 79 70 219
0.0000 1.8805 3.0300 69 46 231
0.0000 1.8805 0.0000 69 46 231
0.1000 1.8805 3.0300 69 46 231
0.1000 1.8805 0.0000 69 46 231
0.2000 1.8805 3.0300 69 46 231
0.2000 1.8805 0.0000 69 46 231
0.3000 1.8805 3.0300 69 46 231
0.3000 1.8805 0.0000 69 46 231
0.4000 1.8805 3.0300 69 46 231
0.4000 1.8805 0.0000 69 46 231
0.5000 1.8805 3.0300 69 46 231
0.5000 1.8805 0.0000 69 46 231
0.6000 1.8805 3.0300 69 46 231
0.6000 1.8805 0.0000 69 46 231
0.7000 1.8805 3.0300 69 46 231
0.7000 1.8805 0.0000 69 46 231
0.8000 1.8805 3.0300 69 46 231
0.8000 1.8805 0.0000 69 46 231
0.9000 1.8805 3.0300 69 46 231
0.9000 1.8805 0.0000 69 46 231
1.0000 1.8805 3.0300 69 46 231
1.0000 1.8805 0.0000 69 46 231
1.1000 1.8805 3.0300 69 46 231
1.1000 1.8805 0.0000 69 46 231
1.2000 1.8805 3.0300 69 46 231
1.2000 1.8805 0.0000 69 46 231
1.3000 1.8805 3.0300 69 46 231
1.3000 1.8805 0.0000 69 46 231
1.4000 1.8805 3.0300 69 46 231
1.4000 1.8805 0.0000 69 46 231
1.5000 1.8805 3.0300 69 46 231
1.5000 1.8805 0.0000 69 46 231
1.6000 1.8805 3.0300 69 46 231
1.6000 1.8805 0.0000 69 46 231
1.7000 1.8805 3.0300 69 46 231
1.7000 1.8805 0.0000 69 46 231
1.8000 1.8805 3.0300 69 46 231
1.8000 1.8805 0.0000 69 46 231
1.9000 1.8805 3.0300 69 46 231
1.9000 1.8805 0.0000 69 46 231
2.0000 1.8805 3.0300 69 46 231
2.0000 1.8805 0.0000 69 46 231
2.1000 1.8805 3.0300 69 46 231
2.1000 1.8805 0.0000 69 46 231
2.2000 1.8805 3.0300 69 46 231
2.2000 1.8805 0.0000 69 46 231
2.3000 1.8805 3.0300 69 46 231
2.3000 1.8805 0.0000 69 46 231
2.4000 1.8805 3.0300 69 46 231
2.4000 1.8805 0.0000 69 46 231
2.5000 1.8805 3.0300 69 46 231
2.5000 1.8805 0.0000 69 46 231
2.6000 1.8805 3.0300 69 46 231
2.6000 1.8805 0.0000 69 46 231
2.6300 1.8805 0.0000 69 46 231
0.0000 1.8805 0.0000 69 46 231
2.6300 1.8805 0.1000 69 46 231
0.0000 1.8805 0.1000 69 46 231
2.6300 1.8805 0.2000 69 46 231
0.0000 1.8805 0.2000 69 46 231
2.6300 1.8805 0.3000 69 46 231
0.0000 1.8805 0.3000 69 46 231
2.6300 1.8805 0.4000 69 46 231
0.0000 1.8805 0.4000 69 46 231
2.6300 1.8805 0.5000 69 46 231
0.0000 1.8805 0.5000 69 46 231
2.6300 1.8805 0.6000 69 46 231
0.0000 1.8805 0.6000 69 46 231
2.6300 1.8805 0.7000 69 46 231
0.0000 1.8805 0.7000 69 46 231
2.6300 1.8805 0.8000 69 46 231
0.0000 1.8805 0.8000 69 46 231
2.6300 1.8805 0.9000 69 46 231
0.0000 1.8805 0.9000 69 46 231
2.6300 1.8805 1.0000 69 46 231
0.0000 1.8805 1.0000 69 46 231
2.6300 1.8805 1.1000 69 46 231
0.0000 1.8805 1.1000 69 46 231
2.6300 1.8805 1.2000 69 46 231
0.0000 1.8805 1.2000 69 46 231
2.6300 1.8805 1.3000 69 46 231
0.0000 1.8805 1.3000 69 46 231
2.6300 1.8805 1.4000 69 46 231
0.0000 1.8805 1.4000 69 46 231
2.6300 1.8805 1.5000 69 46 231
0.0000 1.8805 1.5000 69 46 231
2.6300 1.8805 1.6000 69 46 231
0.0000 1.8805 1.6000 69 46 231
2.6300 1.8805 1.7000 69 46 231
0.0000 1.8805 1.7000 69 46 231
2.6300 1.8805 1.8000 69 46 231
0.0000 1.8805 1.8000 69 46 231
2.6300 1.8805 1.9000 69 46 231
0.0000 1.8805 1.9000 69 46 231
2.6300 1.8805 2.0000 69 46 231
0.0000 1.8805 2.0000 69 46 231
2.6300 1.8805 2.1000 69 46 231
0.0000 1.8805 2.1000 69 46 231
2.6300 1.8805 2.2000 69 46 231
0.0000 1.8805 2.2000 69 46 231
2.6300 1.8805 2.3000 69 46 231
0.0000 1.8805 2.3000 69 46 231
2.6300 1.8805 2.4000 69 46 231
0.0000 1.8805 2.4000 69 46 231
2.6300 1.8805 2.5000 69 46 231
0.0000 1.8805 2.5000 69 46 231
2.6300 1.8805 2.6000 69 46 231
0.0000 1.8805 2.6000 69 46 231
2.6300 1.8805 2.7000 69 46 231
0.0000 1.8805 2.7000 69 46 231
2.6300 1.8805 2.8000 69 46 231
0.0000 1.8805 2.8000 69 46 231
2.6300 1.8805 2.9000 69 46 231
0.0000 1.8805 2.9000 69 46 231
2.6300 1.8805 3.0000 69 46 231
0.0000 1.8805 3.0000 69 46 231
0.0000 1.9752 3.0300 60 23 243
0.0000 1.9752 0.0000 60 23 243
0.1000 1.9752 3.0300 60 23 243
0.1000 1.9752 0.0000 60 23 243
0.2000 1.9752 3.0300 60 23 243
0.2000 1.9752 0.0000 60 23 243
0.3000 1.9752 3.0300 60 23 243
0.3000 1.9752 0.0000 60 23 243
0.4000 1.9752 3.0300 60 23 243
0.4000 1.9752 0.0000 60 23 243
0.5000 1.9752 3.0300 60 23 243
0.5000 1.9752 0.0000 60 23 243
0.6000 1.9752 3.0300 60 23 243
0.6000 1.9752 0.0000 60 23 243
0.7000 1.9752 3.0300 60 23 243
0.7000 1.9752 0.0000 60 23 243
0.8000 1.9752 3.0300 60 23 243
0.8000 1.9752 0.0000 60 23 243
0.9000 1.9752 3.0300 60 23 243
0.9000 1.9752 0.0000 60 23 243
1.0000 1.9752 3.0300 60 23 243
1.0000 1.9752 0.0000 60 23 243
1.1000 1.9752 3.0300 60 23 243
1.1000 1.9752 0.0000 60 23 243
1.2000 1.9752 3.0300 60 23 243
1.2000 1.9752 0.0000 60 23 243
1.3000 1.9752 3.0300 60 23 243
1.3000 1.9752 0.0000 60 23 243
1.4000 1.9752 3.0300 60 23 243
1.4000 1.9752 0.0000 60 23 243
1.5000 1.9752 3.0300 60 23 243
1.5000 1.9752 0.0000 60 23 243
1.6000 1.9752 3.0300 60 23 243
1.6000 1.9752 0.0000 60 23 243
1.7000 1.9752 3.0300 60 23 243
1.7000 1.9752 0.0000 60 23 243
1.8000 1.9752 3.0300 60 23 243
1.8000 1.9752 0.0000 60 23 243
1.9000 1.9752 3.0300 60 23 243
1.9000 1.9752 0.0000 60 23 243
2.0000 1.9752 3.0300 60 23 243
2.0000 1.9752 0.0000 60 23 243
2.1000 1.9752 3.0300 60 23 243
2.1000 1.9752 0.0000 60 23 243
2.2000 1.9752 3.0300 60 23 243
2.2000 1.9752 0.0000 60 23 243
2.3000 1.9752 3.0300 60 23 243
2.3000 1.9752 0.0000 60 23 243
2.4000 1.9752 3.0300 60 23 243
2.4000 1.9752 0.0000 60 23 243
2.5000 1.9752 3.0300 60 23 243
2.5000 1.9752 0.0000 60 23 243
2.6000 1.9752 3.0300 60 23 243
2.6000 1.9752 0.0000 60 23 243
2.6300 1.9752 0.0000 60 23 243
0.0000 1.9752 0.0000 60 23 243
2.6300 1.9752 0.1000 60 23 243
0.0000 1.9752 0.1000 60 23 243
2.6300 1.9752 0.2000 60 23 243
0.0000 1.9752 0.2000 60 23 243
2.6300 1.9752 0.3000 60 23 243
0.0000 1.9752 0.3000 60 23 243
2.6300 1.9752 0.4000 60 23 243
0.0000 1.9752 0.4000 60 23 243
2.6300 1.9752 0.5000 60 23 243
0.0000 1.9752 0.5000 60 23 243
2.6300 1.9752 0.6000 60 23 243
0.0000 1.9752 0.6000 60 23 243
2.6300 1.9752 0.7000 60 23 243
0.0000 1.9752 0.7000 60 23 243
2.6300 1.9752 0.8000 60 23 243
0.0000 1.9752 0.8000 60 23 243
2.6300 1.9752 0.9000 60 23 243
0.0000 1.9752 0.9000 60 23 243
2.6300 1.9752 1.0000 60 23 243
0.0000 1.9752 1.0000 60 23 243
2.6300 1.9752 1.1000 60 23 243
0.0000 1.9752 1.1000 60 23 243
2.6300 1.9752 1.2000 60 23 243
0.0000 1.9752 1.2000 60 23 243
2.6300 1.9752 1.3000 60 23 243
0.0000 1.9752 1.3000 60 23 243
2.6300 1.9752 1.4000 60 23 243
0.0000 1.9752 1.4000 60 23 243
2.6300 1.9752 1.5000 60 23 243
0.0000 1.9752 1.5000 60 23 243
2.6300 1.9752 1.6000 60 23 243
0.0000 1.9752 1.6000 60 23 243
2.6300 1.9752 1.7000 60 23 243
0.0000 1.9752 1.7000 60 23 243
2.6300 1.9752 1.8000 60 23 243
0.0000 1.9752 1.8000 60 23 243
2.6300 1.9752 1.9000 60 23 243
0.0000 1.9752 1.9000 60 23 243
2.6300 1.9752 2.0000 60 23 243
0.0000 1.9752 2.0000 60 23 243
2.6300 1.9752 2.1000 60 23 243
0.0000 1.9752 2.1000 60 23 243
2.6300 1.9752 2.2000 60 23 243
0.0000 1.9752 2.2000 60 23 243
2.6300 1.9752 2.3000 60 23 243
0.0000 1.9752 2.3000 60 23 243
2.6300 1.9752 2.4000 60 23 243
0.0000 1.9752 2.4000 60 23 243
2.6300 1.9752 2.5000 60 23 243
0.0000 1.9752 2.5000 60 23 243
2.6300 1.9752 2.6000 60 23 243
0.0000 1.9752 2.6000 60 23 243
2.6300 1.9752 2.7000 60 23 243
0.0000 1.9752 2.7000 60 23 243
2.6300 1.9752 2.8000 60 23 243
0.0000 1.9752 2.8000 60 23 243
2.6300 1.9752 2.9000 60 23 243
0.0000 1.9752 2.9000 60 23 243
2.6300 1.9752 3.0000 60 23 243
0.0000 1.9752 3.0000 60 23 243
0.0000 2.0700 3.0300 50 0 255
0.0000 2.0700 0.0000 50 0 255
0.1000 2.0700 3.0300 50 0 255
0.1000 2.0700 0.0000 50 0 255
0.2000 2.0700 3.0300 50 0 255
0.2000 2.0700 0.0000 50 0 255
0.3000 2.0700 3.0300 50 0 255
0.3000 2.0700 0.0000 50 0 255
0.4000 2.0700 3.0300 50 0 255
0.4000 2.0700 0.0000 50 0 255
0.5000 2.0700 3.0300 50 0 255
0.5000 2.0700 0.0000 50 0 255
0.6000 2.0700 3.0300 50 0 255
0.6000 2.0700 0.0000 50 0 255
0.7000 2.0700 3.0300 50 0 255
0.7000 2.0700 0.0000 50 0 255
0.8000 2.0700 3.0300 50 0 255
0.8000 2.0700 0.0000 50 0 255
0.9000 2.0700 3.0300 50 0 255
0.9000 2.0700 0.0000 50 0 255
1.0000 2.0700 3.0300 50 0 255
1.0000 2.0700 0.0000 50 0 255
1.1000 2.0700 3.0300 50 0 255
1.1000 2.0700 0.0000 50 0 255
1.2000 2.0700 3.0300 50 0 255
1.2000 2.0700 0.0000 50 0 255
1.3000 2.0700 3.0300 50 0 255
1.3000 2.0700 0.0000 50 0 255
1.4000 2.0700 3.0300 50 0 255
1.4000 2.0700 0.0000 50 0 255
1.5000 2.0700 3.0300 50 0 255
1.5000 2.0700 0.0000 50 0 255
1.6000 2.0700 3.0300 50 0 255
1.6000 2.0700 0.0000 50 0 255
1.7000 2.0700 3.0300 50 0 255
1.7000 2.0700 0.0000 50 0 255
1.8000 2.0700 3.0300 50 0 255
1.8000 2.0700 0.0000 50 0 255
1.9000 2.0700 3.0300 50 0 255
1.9000 2.0700 0.0000 50 0 255
2.0000 2.0700 3.0300 50 0 255
2.0000 2.0700 0.0000 50 0 255
2.1000 2.0700 3.0300 50 0 255
2.1000 2.0700 0.0000 50 0 255
2.2000 2.0700 3.0300 50 0 255
2.2000 2.0700 0.0000 50 0 255
2.3000 2.0700 3.0300 50 0 255
2.3000 2.0700 0.0000 50 0 255
2.4000 2.0700 3.0300 50 0 255
2.4000 2.0700 0.0000 50 0 255
2.5000 2.0700 3.0300 50 0 255
2.5000 2.0700 0.0000 50 0 255
2.6000 2.0700 3.0300 50 0 255
2.6000 2.0700 0.0000 50 0 255
2.6300 2.0700 0.0000 50 0 255
0.0000 2.0700 0.0000 50 0 255
2.6300 2.0700 0.1000 50 0 255
0.0000 2.0700 0.1000 50 0 255
2.6300 2.0700 0.2000 50 0 255
0.0000 2.0700 0.2000 50 0 255
2.6300 2.0700 0.3000 50 0 255
0.0000 2.0700 0.3000 50 0 255
2.6300 2.0700 0.4000 50 0 255
0.0000 2.0700 0.4000 50 0 255
2.6300 2.0700 0.5000 50 0 255
0.0000 2.0700 0.5000 50 0 255
2.6300 2.0700 0.6000 50 0 255
0.0000 2.0700 0.6000 50 0 255
2.6300 2.0700 0.7000 50 0 255
0.0000 2.0700 0.7000 50 0 255
2.6300 2.0700 0.8000 50 0 255
0.0000 2.0700 0.8000 50 0 255
2.6300 2.0700 0.9000 50 0 255
0.0000 2.0700 0.9000 50 0 255
2.6300 2.0700 1.0000 50 0 255
0.0000 2.0700 1.0000 50 0 255
2.6300 2.0700 1.1000 50 0 255
0.0000 2.0700 1.1000 50 0 255
2.6300 2.0700 1.2000 50 0 255
0.0000 2.0700 1.2000 50 0 255
2.6300 2.0700 1.3000 50 0 255
0.0000 2.0700 1.3000 50 0 255
2.6300 2.0700 1.4000 50 0 255
0.0000 2.0700 1.4000 50 0 255
2.6300 2.0700 1.5000 50 0 255
0.0000 2.0700 1.5000 50 0 255
2.6300 2.0700 1.6000 50 0 255
0.0000 2.0700 1.6000 50 0 255
2.6300 2.0700 1.7000 50 0 255
0.0000 2.0700 1.7000 50 0 255
2.6300 2.0700 1.8000 50 0 255
0.0000 2.0700 1.8000 50 0 255
2.6300 2.0700 1.9000 50 0 255
0.0000 2.0700 1.9000 50 0 255
2.6300 2.0700 2.0000 50 0 255
0.0000 2.0700 2.0000 50 0 255
2.6300 2.0700 2.1000 50 0 255
0.0000 2.0700 2.1000 50 0 255
2.6300 2.0700 2.2000 50 0 255
0.0000 2.0700 2.2000 50 0 255
2.6300 2.0700 2.3000 50 0 255
0.0000 2.0700 2.3000 50 0 255
2.6300 2.0700 2.4000 50 0 255
0.0000 2.0700 2.4000 50 0 255
2.6300 2.0700 2.5000 50 0 255
0.0000 2.0700 2.5000 50 0 255
2.6300 2.0700 2.6000 50 0 255
0.0000 2.0700 2.6000 50 0 255
2.6300 2.0700 2.7000 50 0 255
0.0000 2.0700 2.7000 50 0 255
2.6300 2.0700 2.8000 50 0 255
0.0000 2.0700 2.8000 50 0 255
2.6300 2.0700 2.9000 50 0 255
0.0000 2.0700 2.9000 50 0 255
2.6300 2.0700 3.0000 50 0 255
0.0000 2.0700 3.0000 50 0 255
