ply
format ascii 1.0
element vertex 57
property float x
property float y
property float z
property uchar red
property uchar green
property uchar blue
end_header
-0.7026 -0.2501 1.0026 188 255 66
-0.5974 -0.1417 0.9993 134 255 120
-0.5180 -0.0831 0.9993 133 255 121
-0.4532 -0.0606 0.9931 26 255 228
-0.3935 -0.0668 0.9949 57 255 197
-0.3334 -0.1028 0.9951 62 255 192
-0.2711 -0.1675 1.0038 210 255 44
-0.2152 -0.2381 1.0053 235 255 19
-0.1462 -0.3298 1.0029 193 255 61
-0.0897 -0.3850 0.9940 42 255 212
-0.0396 -0.4169 0.9978 108 255 146
0.0235 -0.4244 0.9940 42 255 212
0.0871 -0.3905 1.0048 227 255 27
0.1469 -0.3287 1.0118 255 164 0
0.2294 -0.2242 1.0057 241 255 13
0.2919 -0.1425 0.9997 140 255 114
0.3689 -0.0770 0.9988 124 255 130
0.4298 -0.0584 0.9911 0 248 255
0.6179 -0.1607 1.0082 255 224 0
-0.7026 0.0019 1.0073 255 240 0
-0.5974 0.1068 0.9973 99 255 155
-0.5180 0.1698 0.9948 56 255 198
-0.4532 0.1909 0.9934 33 255 221
-0.3935 0.1817 0.9947 54 255 200
-0.3334 0.1447 1.0003 150 255 104
-0.2711 0.0795 1.0057 241 255 13
-0.2152 0.0095 1.0057 242 255 12
-0.1462 -0.0783 1.0073 255 239 0
-0.0897 -0.1363 1.0017 174 255 80
-0.0396 -0.1664 0.9994 134 255 120
0.0235 -0.1717 0.9925 17 255 237
0.0871 -0.1390 1.0064 254 255 0
0.1469 -0.0764 1.0083 255 223 0
0.2294 0.0295 1.0088 255 214 0
0.2919 0.1065 1.0020 179 255 75
0.3689 0.1721 0.9932 29 255 225
0.4298 0.1886 0.9852 0 148 255
0.6179 0.0910 1.0016 173 255 81
-0.7026 0.2518 1.0050 230 255 24
-0.5974 0.3563 0.9966 86 255 168
-0.5180 0.4175 0.9996 138 255 116
-0.4532 0.4395 0.9931 27 255 227
-0.3935 0.4328 0.9950 59 255 195
-0.3334 0.3976 0.9964 83 255 171
-0.2711 0.3304 1.0055 238 255 16
-0.2152 0.2614 1.0020 179 255 75
-0.1462 0.1741 1.0068 255 249 0
-0.0897 0.1144 0.9990 128 255 126
-0.0396 0.0821 1.0010 162 255 92
0.0235 0.0783 0.9954 67 255 187
0.0871 0.1120 1.0054 237 255 17
0.1469 0.1703 1.0091 255 210 0
0.2294 0.2758 1.0100 255 193 0
0.2919 0.3578 0.9984 117 255 137
0.3689 0.4236 0.9935 34 255 220
0.4298 0.4382 0.9891 0 214 255
0.6179 0.3427 1.0034 202 255 52
